<svg width="30" height="36" viewBox="0 0 30 36" fill="none" xmlns="http://www.w3.org/2000/svg">
<path d="M15 14.6666C18.6819 14.6666 21.6667 11.6818 21.6667 7.99992C21.6667 4.31802 18.6819 1.33325 15 1.33325C11.3181 1.33325 8.33334 4.31802 8.33334 7.99992C8.33334 11.6818 11.3181 14.6666 15 14.6666Z" stroke="black" stroke-width="2.5"/>
<path d="M28.33 28.0001C28.3333 27.7267 28.3333 27.4484 28.3333 27.1667C28.3333 23.0251 22.3633 19.6667 15 19.6667C7.63666 19.6667 1.66666 23.0251 1.66666 27.1667C1.66666 31.3084 1.66666 34.6667 15 34.6667C18.7183 34.6667 21.4 34.4051 23.3333 33.9384" stroke="black" stroke-width="2.5" stroke-linecap="round"/>
</svg>
