<svg width="20" height="20" viewBox="0 0 20 20" fill="none" xmlns="http://www.w3.org/2000/svg">
<path d="M3.75 5.41667C3.75 4.97464 3.92559 4.55072 4.23816 4.23816C4.55072 3.92559 4.97464 3.75 5.41667 3.75H14.9408C14.9958 3.75 15.0242 3.75 15.0467 3.7525C15.1404 3.76323 15.2276 3.80542 15.2942 3.87217C15.3608 3.93892 15.4028 4.02629 15.4133 4.12C15.4167 4.15517 15.4178 4.19052 15.4167 4.22583C15.4167 4.5575 15.4167 4.72333 15.4008 4.86333C15.3374 5.42606 15.0848 5.95058 14.6843 6.35101C14.2839 6.75144 13.7594 7.00405 13.1967 7.0675C13.0567 7.08333 12.8908 7.08333 12.5592 7.08333H12.5M3.75 5.41667C3.75 5.85869 3.92559 6.28262 4.23816 6.59518C4.55072 6.90774 4.97464 7.08333 5.41667 7.08333H14.5833C15.3692 7.08333 15.7617 7.08333 16.0058 7.3275C16.25 7.57167 16.25 7.96417 16.25 8.75V10.4167M3.75 5.41667V12.9167C3.75 14.4883 3.75 15.2733 4.23833 15.7617C4.72667 16.25 5.51167 16.25 7.08333 16.25H14.5833C15.3692 16.25 15.7617 16.25 16.0058 16.0058C16.25 15.7617 16.25 15.3692 16.25 14.5833V13.75M16.25 10.4167H14.5833C13.7975 10.4167 13.405 10.4167 13.1608 10.6608C12.9167 10.905 12.9167 11.2975 12.9167 12.0833C12.9167 12.8692 12.9167 13.2617 13.1608 13.5058C13.405 13.75 13.7975 13.75 14.5833 13.75H16.25M16.25 10.4167V13.75" stroke="#3160F9"/>
</svg>
