<svg width="39" height="40" viewBox="0 0 39 40" fill="none" xmlns="http://www.w3.org/2000/svg">
<path d="M38.7183 20C38.7183 30.6141 30.1139 39.2185 19.4998 39.2185C8.88567 39.2185 0.28125 30.6141 0.28125 20C0.28125 9.38592 8.88567 0.781494 19.4998 0.781494C30.1139 0.781494 38.7183 9.38592 38.7183 20Z" fill="#3160F9"/>
<path d="M14.7862 26.2831C13.3471 26.2831 12.1479 25.7788 11.1885 24.7702C10.2291 23.7617 9.7494 22.2611 9.7494 20.2685V19.7704C9.7494 17.9254 10.2106 16.4986 11.1331 15.49C12.0556 14.4691 13.2733 13.9587 14.7862 13.9587C16.2991 13.9587 17.5106 14.4691 18.4208 15.49C19.3433 16.4986 19.8045 17.9254 19.8045 19.7704V20.2685C19.8045 22.2611 19.331 23.7617 18.3839 24.7702C17.4368 25.7788 16.2376 26.2831 14.7862 26.2831ZM12.2217 20.7113C12.2217 23.2205 13.0765 24.475 14.7862 24.475C16.4959 24.475 17.3507 23.2205 17.3507 20.7113V19.1431C17.3507 18.073 17.1293 17.2612 16.6865 16.7077C16.2437 16.1419 15.6103 15.859 14.7862 15.859C13.9621 15.859 13.3287 16.1419 12.8859 16.7077C12.4431 17.2612 12.2217 18.073 12.2217 19.1431V20.7113Z" fill="white"/>
<path d="M20.6764 26.0064L23.573 21.4677L20.8794 17.0582H23.4808L25.3442 20.3607L27.1523 17.0582H29.5139L26.8755 21.4124L29.7906 26.0064H27.1892L25.1044 22.5194L23.038 26.0064H20.6764Z" fill="white"/>
</svg>
