<svg width="25" height="24" viewBox="0 0 25 24" fill="none" xmlns="http://www.w3.org/2000/svg">
<path d="M15.74 2H11.846C10.082 2 8.684 2 7.591 2.148C6.465 2.3 5.554 2.62 4.836 3.341C4.117 4.062 3.798 4.977 3.647 6.107C3.5 7.205 3.5 8.608 3.5 10.379V16.217C3.5 17.725 4.42 19.017 5.727 19.559C5.66 18.649 5.66 17.374 5.66 16.312V11.302C5.66 10.021 5.66 8.916 5.778 8.032C5.905 7.084 6.191 6.176 6.925 5.439C7.659 4.702 8.564 4.415 9.508 4.287C10.388 4.169 11.488 4.169 12.765 4.169H15.835C17.111 4.169 18.209 4.169 19.09 4.287C18.8261 3.61329 18.3653 3.03474 17.7678 2.62678C17.1702 2.21883 16.4635 2.00041 15.74 2Z" fill="black"/>
<path d="M7.1001 11.397C7.1001 8.67101 7.1001 7.30801 7.9441 6.46101C8.7871 5.61401 10.1441 5.61401 12.8601 5.61401H15.7401C18.4551 5.61401 19.8131 5.61401 20.6571 6.46101C21.5011 7.30801 21.5001 8.67101 21.5001 11.397V16.217C21.5001 18.943 21.5001 20.306 20.6571 21.153C19.8131 22 18.4551 22 15.7401 22H12.8601C10.1451 22 8.7871 22 7.9441 21.153C7.1001 20.306 7.1001 18.943 7.1001 16.217V11.397Z" fill="black"/>
</svg>
