<svg width="14" height="15" viewBox="0 0 14 15" fill="none" xmlns="http://www.w3.org/2000/svg">
<path d="M13.1875 0.75H4.1875C4.03832 0.75 3.89524 0.809263 3.78975 0.914753C3.68426 1.02024 3.625 1.16332 3.625 1.3125V4.125H0.8125C0.663316 4.125 0.520242 4.18426 0.414753 4.28975C0.309263 4.39524 0.25 4.53832 0.25 4.6875V13.6875C0.25 13.8367 0.309263 13.9798 0.414753 14.0852C0.520242 14.1907 0.663316 14.25 0.8125 14.25H9.8125C9.96168 14.25 10.1048 14.1907 10.2102 14.0852C10.3157 13.9798 10.375 13.8367 10.375 13.6875V10.875H13.1875C13.3367 10.875 13.4798 10.8157 13.5852 10.7102C13.6907 10.6048 13.75 10.4617 13.75 10.3125V1.3125C13.75 1.16332 13.6907 1.02024 13.5852 0.914753C13.4798 0.809263 13.3367 0.75 13.1875 0.75ZM9.25 13.125H1.375V5.25H9.25V13.125ZM12.625 9.75H10.375V4.6875C10.375 4.53832 10.3157 4.39524 10.2102 4.28975C10.1048 4.18426 9.96168 4.125 9.8125 4.125H4.75V1.875H12.625V9.75Z" fill="black"/>
</svg>
