<svg width="21" height="20" viewBox="0 0 21 20" fill="none" xmlns="http://www.w3.org/2000/svg">
<path d="M2.2373 13.125L18.4873 13.125C18.8325 13.125 19.1123 12.8452 19.1123 12.5V3.75C19.1123 3.40482 18.8325 3.125 18.4873 3.125L2.2373 3.125C1.89213 3.125 1.6123 3.40482 1.6123 3.75V12.5C1.6123 12.8452 1.89213 13.125 2.2373 13.125Z" stroke="white" stroke-linejoin="round"/>
<path d="M2.8623 15H17.8623M4.1123 16.875H16.6123" stroke="white" stroke-linecap="round" stroke-linejoin="round"/>
<path d="M10.3623 11.25C12.0882 11.25 13.4873 9.85089 13.4873 8.125C13.4873 6.39911 12.0882 5 10.3623 5C8.63641 5 7.2373 6.39911 7.2373 8.125C7.2373 9.85089 8.63641 11.25 10.3623 11.25Z" stroke="white" stroke-linecap="round" stroke-linejoin="round"/>
<path d="M19.1123 6.25C18.2835 6.25 17.4886 5.92076 16.9026 5.33471C16.3165 4.74866 15.9873 3.9538 15.9873 3.125M1.6123 6.25C2.02269 6.25 2.42905 6.16917 2.80819 6.01212C3.18733 5.85508 3.53183 5.62489 3.82201 5.33471C4.1122 5.04453 4.34238 4.70003 4.49943 4.32089C4.65647 3.94174 4.7373 3.53538 4.7373 3.125M19.1123 10C18.2835 10 17.4886 10.3292 16.9026 10.9153C16.3165 11.5013 15.9873 12.2962 15.9873 13.125M1.6123 10C2.02269 10 2.42905 10.0808 2.80819 10.2379C3.18733 10.3949 3.53183 10.6251 3.82201 10.9153C4.1122 11.2055 4.34238 11.55 4.49943 11.9291C4.65647 12.3083 4.7373 12.7146 4.7373 13.125" stroke="white" stroke-linecap="round" stroke-linejoin="round"/>
</svg>
