<svg width="17" height="16" viewBox="0 0 17 16" fill="none" xmlns="http://www.w3.org/2000/svg">
<g clip-path="url(#clip0_40_1175)">
<path d="M8.5 0C10.6217 0 12.6566 0.842855 14.1569 2.34315C15.6571 3.84344 16.5 5.87827 16.5 8C16.5 10.1217 15.6571 12.1566 14.1569 13.6569C12.6566 15.1571 10.6217 16 8.5 16C6.37827 16 4.34344 15.1571 2.84315 13.6569C1.34285 12.1566 0.5 10.1217 0.5 8C0.5 5.87827 1.34285 3.84344 2.84315 2.34315C4.34344 0.842855 6.37827 0 8.5 0ZM2 8C2 9.72391 2.68482 11.3772 3.90381 12.5962C5.12279 13.8152 6.77609 14.5 8.5 14.5C10.2239 14.5 11.8772 13.8152 13.0962 12.5962C14.3152 11.3772 15 9.72391 15 8C15 6.27609 14.3152 4.62279 13.0962 3.40381C11.8772 2.18482 10.2239 1.5 8.5 1.5C6.77609 1.5 5.12279 2.18482 3.90381 3.40381C2.68482 4.62279 2 6.27609 2 8ZM6.879 5.227L11.143 7.786C11.1798 7.80825 11.2103 7.83965 11.2315 7.87714C11.2526 7.91463 11.2638 7.95695 11.2638 8C11.2638 8.04305 11.2526 8.08537 11.2315 8.12286C11.2103 8.16035 11.1798 8.19174 11.143 8.214L6.879 10.773C6.84108 10.7958 6.79778 10.8082 6.75352 10.8088C6.70926 10.8095 6.66563 10.7983 6.62708 10.7765C6.58854 10.7548 6.55646 10.7232 6.53413 10.685C6.5118 10.6467 6.50003 10.6033 6.5 10.559V5.442C6.49985 5.39765 6.5115 5.35406 6.53375 5.3157C6.55601 5.27733 6.58807 5.24558 6.62664 5.2237C6.66522 5.20181 6.70892 5.19059 6.75327 5.19117C6.79762 5.19175 6.84101 5.20411 6.879 5.227Z" fill="black"/>
</g>
<defs>
<clipPath id="clip0_40_1175">
<rect width="16" height="16" fill="white" transform="translate(0.5)"/>
</clipPath>
</defs>
</svg>
