<svg width="17" height="16" viewBox="0 0 17 16" fill="none" xmlns="http://www.w3.org/2000/svg">
<path d="M11.3412 1.42692C11.6694 1.099 12.1143 0.914795 12.5782 0.914795C13.0421 0.914795 13.4871 1.099 13.8152 1.42692L14.9012 2.51292C15.2291 2.84107 15.4133 3.28601 15.4133 3.74992C15.4133 4.21384 15.2291 4.65877 14.9012 4.98692L6.29122 13.5969C6.08122 13.8069 5.82122 13.9609 5.53522 14.0419L2.28422 14.9719C2.15554 15.0087 2.01937 15.0104 1.88983 14.9768C1.76028 14.9432 1.64209 14.8755 1.54751 14.7808C1.45293 14.6862 1.38541 14.5679 1.35194 14.4383C1.31848 14.3087 1.32031 14.1726 1.35722 14.0439L2.28622 10.7939C2.36722 10.5079 2.52122 10.2469 2.73122 10.0359L11.3412 1.42592V1.42692ZM11.5172 6.24992L10.0782 4.80992L3.79222 11.0969C3.76215 11.127 3.74014 11.1641 3.72822 11.2049L3.17022 13.1579L5.12322 12.5999C5.16403 12.588 5.20117 12.566 5.23122 12.5359L11.5172 6.24992ZM12.7552 2.48692C12.732 2.46364 12.7044 2.44517 12.674 2.43256C12.6437 2.41996 12.6111 2.41347 12.5782 2.41347C12.5453 2.41347 12.5128 2.41996 12.4824 2.43256C12.452 2.44517 12.4244 2.46364 12.4012 2.48692L11.1392 3.74992L12.5782 5.18992L13.8412 3.92692C13.8645 3.9037 13.883 3.87611 13.8956 3.84574C13.9082 3.81537 13.9147 3.7828 13.9147 3.74992C13.9147 3.71704 13.9082 3.68448 13.8956 3.6541C13.883 3.62373 13.8645 3.59614 13.8412 3.57292L12.7552 2.48692Z" fill="#24292F"/>
</svg>
