<svg width="20" height="21" viewBox="0 0 20 21" fill="none" xmlns="http://www.w3.org/2000/svg">
<path fill-rule="evenodd" clip-rule="evenodd" d="M10 20.5C4.47688 20.5 0 16.0231 0 10.5C0 4.97688 4.47688 0.5 10 0.5C15.5231 0.5 20 4.97688 20 10.5C20 16.0231 15.5231 20.5 10 20.5ZM6.92937 9.75937H5.625V11.4075H6.92937V14.1962L5.625 14.5769V15.8125H14.3419V14.1169H8.97625V11.4075H13.0875V9.75937H8.97625V8.35C8.97625 7.13 9.63687 6.36937 10.7431 6.36937C11.6675 6.36937 12.2288 6.7975 12.8231 7.52563L14.375 6.3375C13.5825 5.33875 12.5588 4.5625 10.7263 4.5625C8.31625 4.5625 6.92937 6.00437 6.92937 8.30188V9.75937Z" fill="black"/>
</svg>
