<svg width="19" height="19" viewBox="0 0 19 19" fill="none" xmlns="http://www.w3.org/2000/svg">
<path d="M17.5912 7.91297L10.1343 7.91263C9.80499 7.91263 9.53809 8.1666 9.53809 8.47998V10.747C9.53809 11.0603 9.80499 11.3144 10.1342 11.3144H14.3335C13.8737 12.4501 13.0154 13.4012 11.9205 14.0055L13.711 16.9554C16.5833 15.3745 18.2814 12.6006 18.2814 9.49547C18.2814 9.05334 18.2472 8.73728 18.1787 8.3814C18.1267 8.11101 17.88 7.91297 17.5912 7.91297Z" fill="#167EE6"/>
<path d="M9.14015 14.7206C7.08511 14.7206 5.29108 13.6521 4.32755 12.0708L1.22803 13.771C2.80535 16.3727 5.76019 18.1247 9.14015 18.1247C10.7982 18.1247 12.3628 17.6998 13.7105 16.9594V16.9554L11.92 14.0054C11.101 14.4575 10.1532 14.7206 9.14015 14.7206Z" fill="#12B347"/>
<path d="M13.7118 16.9594V16.9553L11.9212 14.0054C11.1022 14.4575 10.1545 14.7206 9.14136 14.7206V18.1247C10.7994 18.1247 12.3641 17.6998 13.7118 16.9594Z" fill="#0F993E"/>
<path d="M3.57684 9.42553C3.57684 8.46152 3.85328 7.55962 4.32821 6.78019L1.22869 5.07998C0.4464 6.35859 0 7.8435 0 9.42553C0 11.0076 0.4464 12.4925 1.22869 13.7711L4.32821 12.0709C3.85328 11.2914 3.57684 10.3895 3.57684 9.42553Z" fill="#FFD500"/>
<path d="M9.14014 4.13032C10.4802 4.13032 11.7112 4.58349 12.6726 5.3373C12.9098 5.52324 13.2546 5.50982 13.4719 5.30305L15.1597 3.69676C15.4062 3.46215 15.3886 3.07813 15.1253 2.86072C13.5144 1.53073 11.4185 0.726288 9.14014 0.726288C5.76019 0.726288 2.80535 2.47826 1.22803 5.07993L4.32755 6.78014C5.29108 5.19889 7.08511 4.13032 9.14014 4.13032Z" fill="#FF4B26"/>
<path d="M12.6739 5.3373C12.911 5.52325 13.2558 5.50982 13.4731 5.30305L15.1609 3.69676C15.4074 3.46215 15.3898 3.07813 15.1265 2.86072C13.5156 1.53069 11.4197 0.726288 9.14136 0.726288V4.13032C10.4814 4.13032 11.7124 4.58349 12.6739 5.3373Z" fill="#D93F21"/>
</svg>
