<svg width="21" height="20" viewBox="0 0 21 20" fill="none" xmlns="http://www.w3.org/2000/svg">
<path d="M2.375 13.125L18.625 13.125C18.9702 13.125 19.25 12.8452 19.25 12.5V3.75C19.25 3.40482 18.9702 3.125 18.625 3.125L2.375 3.125C2.02982 3.125 1.75 3.40482 1.75 3.75V12.5C1.75 12.8452 2.02982 13.125 2.375 13.125Z" stroke="black" stroke-linejoin="round"/>
<path d="M3 15H18M4.25 16.875H16.75" stroke="black" stroke-linecap="round" stroke-linejoin="round"/>
<path d="M10.5 11.25C12.2259 11.25 13.625 9.85089 13.625 8.125C13.625 6.39911 12.2259 5 10.5 5C8.77411 5 7.375 6.39911 7.375 8.125C7.375 9.85089 8.77411 11.25 10.5 11.25Z" stroke="black" stroke-linecap="round" stroke-linejoin="round"/>
<path d="M19.25 6.25C18.4212 6.25 17.6263 5.92076 17.0403 5.33471C16.4542 4.74866 16.125 3.9538 16.125 3.125M1.75 6.25C2.16038 6.25 2.56674 6.16917 2.94589 6.01212C3.32503 5.85508 3.66953 5.62489 3.95971 5.33471C4.24989 5.04453 4.48008 4.70003 4.63712 4.32089C4.79417 3.94174 4.875 3.53538 4.875 3.125M19.25 10C18.4212 10 17.6263 10.3292 17.0403 10.9153C16.4542 11.5013 16.125 12.2962 16.125 13.125M1.75 10C2.16038 10 2.56674 10.0808 2.94589 10.2379C3.32503 10.3949 3.66953 10.6251 3.95971 10.9153C4.24989 11.2055 4.48008 11.55 4.63712 11.9291C4.79417 12.3083 4.875 12.7146 4.875 13.125" stroke="black" stroke-linecap="round" stroke-linejoin="round"/>
</svg>
