<svg width="16" height="17" viewBox="0 0 16 17" fill="none" xmlns="http://www.w3.org/2000/svg">
<path d="M13.5628 11.9343H12.4644C12.3894 11.9343 12.3191 11.9672 12.2722 12.025C12.1628 12.1578 12.0457 12.2859 11.9222 12.4078C11.4174 12.9131 10.8194 13.3159 10.1613 13.5937C9.4795 13.8817 8.7467 14.0294 8.0066 14.0281C7.25816 14.0281 6.53316 13.8812 5.85191 13.5937C5.19383 13.3159 4.59583 12.9131 4.09097 12.4078C3.58522 11.9041 3.18194 11.3072 2.90347 10.65C2.61441 9.96872 2.4691 9.24529 2.4691 8.49685C2.4691 7.74841 2.61597 7.02497 2.90347 6.34372C3.1816 5.68591 3.5816 5.09372 4.09097 4.58591C4.60035 4.0781 5.19254 3.6781 5.85191 3.39997C6.53316 3.11247 7.25816 2.9656 8.0066 2.9656C8.75504 2.9656 9.48003 3.11091 10.1613 3.39997C10.8207 3.6781 11.4128 4.0781 11.9222 4.58591C12.0457 4.70935 12.1613 4.83747 12.2722 4.96872C12.3191 5.02654 12.391 5.05935 12.4644 5.05935H13.5628C13.6613 5.05935 13.7222 4.94997 13.6675 4.86716C12.4691 3.00466 10.3722 1.77185 7.98941 1.7781C4.24566 1.78747 1.2441 4.82654 1.2816 8.5656C1.3191 12.2453 4.31597 15.2156 8.0066 15.2156C10.3832 15.2156 12.4707 13.9843 13.6675 12.1265C13.7207 12.0437 13.6613 11.9343 13.5628 11.9343ZM14.9519 8.39841L12.7347 6.64841C12.6519 6.58279 12.5316 6.64216 12.5316 6.74685V7.93435H7.62535C7.5566 7.93435 7.50035 7.9906 7.50035 8.05935V8.93435C7.50035 9.0031 7.5566 9.05935 7.62535 9.05935H12.5316V10.2468C12.5316 10.3515 12.6535 10.4109 12.7347 10.3453L14.9519 8.59529C14.9669 8.58359 14.9789 8.56865 14.9872 8.5516C14.9956 8.53454 14.9999 8.51582 14.9999 8.49685C14.9999 8.47788 14.9956 8.45915 14.9872 8.4421C14.9789 8.42504 14.9669 8.4101 14.9519 8.39841Z" fill="#E20000"/>
</svg>
