<svg width="20" height="21" viewBox="0 0 20 21" fill="none" xmlns="http://www.w3.org/2000/svg">
<rect y="0.5" width="20" height="20" rx="10" fill="#008753"/>
<path d="M7.16667 13.5V7.11367C7.16663 6.97794 7.21167 6.84604 7.29472 6.73869C7.37777 6.63134 7.49413 6.55462 7.62552 6.52057C7.7569 6.48652 7.89588 6.49707 8.02061 6.55058C8.14535 6.60408 8.24878 6.6975 8.31467 6.81617L11.852 13.1838C11.9179 13.3025 12.0213 13.3959 12.1461 13.4494C12.2708 13.5029 12.4098 13.5135 12.5412 13.4794C12.6725 13.4454 12.7889 13.3687 12.8719 13.2613C12.955 13.154 13 13.0221 13 12.8863V6.5M6 8.83333H14.1667M6 11.1667H14.1667" stroke="white" stroke-width="1.16667" stroke-linecap="round" stroke-linejoin="round"/>
</svg>
