<svg width="33" height="33" viewBox="0 0 33 33" fill="none" xmlns="http://www.w3.org/2000/svg">
<mask id="mask0_74_606" style="mask-type:alpha" maskUnits="userSpaceOnUse" x="0" y="0" width="33" height="33">
<circle cx="16.4995" cy="16.7373" r="16" fill="white"/>
</mask>
<g mask="url(#mask0_74_606)">
</g>
<g clip-path="url(#clip0_74_606)">
<path d="M16.5005 32.2627C25.337 32.2627 32.5005 25.0993 32.5005 16.2627C32.5005 7.42614 25.337 0.262695 16.5005 0.262695C7.66393 0.262695 0.500488 7.42614 0.500488 16.2627C0.500488 25.0993 7.66393 32.2627 16.5005 32.2627Z" fill="#48B254"/>
<path fill-rule="evenodd" clip-rule="evenodd" d="M23.1815 7.6307L24.1265 8.4887L12.1945 15.3007L6.41849 11.9757L6.95849 10.9027L12.1945 13.8797L23.1815 7.6297V7.6307ZM20.7795 6.2627L22.0475 6.9067L12.1945 12.5387L7.60649 9.9367L8.38849 8.9987L12.1945 11.1707L20.7805 6.2627H20.7795ZM24.9635 9.3737L25.6645 10.3127L12.1945 18.0097L5.68949 14.3087L5.98649 13.1287L12.1945 16.6687L24.9635 9.3737ZM26.9065 12.8337C27.3025 13.9427 27.5005 15.1037 27.5005 16.3197C27.5005 17.5357 27.3025 18.7167 26.9065 19.8597L26.6365 20.5847C26.0821 21.8851 25.2852 23.0682 24.2885 24.0707C23.2799 25.061 22.0876 25.8447 20.7785 26.3777C19.3935 26.9677 17.9635 27.2627 16.4875 27.2627C14.9935 27.2627 13.5625 26.9677 12.1945 26.3777C10.901 25.8309 9.72031 25.0486 8.71249 24.0707C7.70432 23.0776 6.90586 21.8922 6.36449 20.5847C5.79449 19.2347 5.49949 17.7847 5.50049 16.3197V15.5957L12.1945 19.3777L26.3125 11.3317L26.9065 12.8337Z" fill="white"/>
</g>
<defs>
<clipPath id="clip0_74_606">
<rect width="32" height="32" fill="white" transform="translate(0.500488 0.262695)"/>
</clipPath>
</defs>
</svg>
