<svg width="16" height="16" viewBox="0 0 16 16" fill="none" xmlns="http://www.w3.org/2000/svg">
<path d="M8.00021 16C8.48746 16.0002 8.95801 15.8225 9.32351 15.5002C9.68901 15.178 9.9243 14.7334 9.9852 14.25C10.0022 14.113 9.8882 14 9.75021 14H6.25021C6.11221 14 5.99821 14.113 6.01521 14.25C6.07611 14.7334 6.31141 15.178 6.6769 15.5002C7.0424 15.8225 7.51295 16.0002 8.00021 16ZM3.00021 5C3.00021 3.67392 3.52699 2.40215 4.46467 1.46447C5.40235 0.526784 6.67412 0 8.00021 0C9.32629 0 10.5981 0.526784 11.5357 1.46447C12.4734 2.40215 13.0002 3.67392 13.0002 5V7.947C13.0002 7.997 13.0152 8.045 13.0422 8.086L14.7452 10.641C14.897 10.8697 14.984 11.1352 14.9969 11.4093C15.0099 11.6835 14.9483 11.956 14.8187 12.198C14.6892 12.4399 14.4965 12.6423 14.2612 12.7835C14.0259 12.9247 13.7567 12.9995 13.4822 13H2.51821C2.24318 13.0007 1.97316 12.9265 1.73706 12.7855C1.50096 12.6444 1.30768 12.4418 1.17791 12.1993C1.04814 11.9568 0.986778 11.6836 1.00039 11.4089C1.01401 11.1343 1.10209 10.8685 1.25521 10.64L2.95821 8.086C2.98538 8.04472 2.99997 7.99642 3.00021 7.947V5ZM8.00021 1.5C7.07195 1.5 6.18171 1.86875 5.52533 2.52513C4.86895 3.1815 4.50021 4.07174 4.50021 5V7.947C4.50021 8.293 4.39821 8.63 4.20621 8.917L2.50321 11.473C2.50118 11.4759 2.50013 11.4794 2.50021 11.483L2.50121 11.489C2.50121 11.491 2.50321 11.493 2.50521 11.495L2.51121 11.499L2.51821 11.5H13.4822L13.4892 11.499L13.4952 11.495L13.4992 11.489L13.5002 11.482C13.5003 11.4784 13.4992 11.4749 13.4972 11.472L11.7942 8.918C11.6024 8.63088 11.5001 8.2933 11.5002 7.948V5C11.5002 4.07174 11.1315 3.1815 10.4751 2.52513C9.8187 1.86875 8.92846 1.5 8.00021 1.5Z" fill="#57606A"/>
</svg>
