<svg width="16" height="16" viewBox="0 0 16 16" fill="none" xmlns="http://www.w3.org/2000/svg">
<path d="M6 2.6665H10V3.99984H6V2.6665ZM13.3333 7.33317H8.66667C8.31304 7.33317 7.97391 7.47365 7.72386 7.7237C7.47381 7.97374 7.33333 8.31288 7.33333 8.6665V13.3332C7.33333 13.6868 7.47381 14.0259 7.72386 14.276C7.97391 14.526 8.31304 14.6665 8.66667 14.6665H13.3333C13.687 14.6665 14.0261 14.526 14.2761 14.276C14.5262 14.0259 14.6667 13.6868 14.6667 13.3332V8.6665C14.6667 8.31288 14.5262 7.97374 14.2761 7.7237C14.0261 7.47365 13.687 7.33317 13.3333 7.33317Z" fill="black"/>
<path d="M14 6.00016V4.00016C14 3.64654 13.8595 3.3074 13.6095 3.05735C13.3594 2.80731 13.0203 2.66683 12.6667 2.66683H11.3333C11.3333 2.31321 11.1929 1.97407 10.9428 1.72402C10.6928 1.47397 10.3536 1.3335 10 1.3335H6C5.64638 1.3335 5.30724 1.47397 5.05719 1.72402C4.80714 1.97407 4.66667 2.31321 4.66667 2.66683H3.33333C2.97971 2.66683 2.64057 2.80731 2.39052 3.05735C2.14048 3.3074 2 3.64654 2 4.00016V12.0002C2 12.3538 2.14048 12.6929 2.39052 12.943C2.64057 13.193 2.97971 13.3335 3.33333 13.3335H6V7.3335C6 6.97987 6.14048 6.64074 6.39052 6.39069C6.64057 6.14064 6.97971 6.00016 7.33333 6.00016H14ZM6 4.00016V2.66683H10V4.00016H6Z" fill="black"/>
</svg>
