<svg width="33" height="26" viewBox="0 0 33 26" fill="none" xmlns="http://www.w3.org/2000/svg">
<path d="M10.1657 8.78137L13.6102 21.0809C13.6242 21.1307 13.6798 21.1557 13.7263 21.133L25.2291 15.5223C25.2923 15.4915 25.2908 15.401 25.2267 15.3723L10.2793 8.68341C10.2152 8.65473 10.1468 8.71377 10.1657 8.78137Z" stroke="black" stroke-width="1.79246"/>
<path d="M16.3204 11.3965L27.37 8.32434C27.4326 8.30691 27.49 8.36525 27.4716 8.42765L23.8366 20.7237C23.8265 20.7579 23.7956 20.7818 23.7599 20.783L13.5313 21.1175" stroke="black" stroke-width="1.79246"/>
<path d="M19.2739 11.6157C19.1982 11.5802 19.2077 11.4696 19.2884 11.4475L26.137 9.57585C26.205 9.55728 26.2669 9.62051 26.247 9.68807L24.9283 14.1546C24.9127 14.2074 24.8537 14.2339 24.8038 14.2105L19.2739 11.6157Z" fill="black" stroke="#FFFDF9" stroke-width="1.08235"/>
<path d="M1.14505 13.1513C0.982832 13.1213 0.946778 12.905 1.09052 12.824L9.4871 8.09588C9.59088 8.03744 9.72156 8.09651 9.74627 8.21302L11.1321 14.7475C11.1581 14.8704 11.051 14.9804 10.9274 14.9576L1.14505 13.1513Z" fill="black"/>
<path d="M4.94777 12.3735C4.85166 12.3524 4.83454 12.2227 4.92186 12.1773L10.023 9.52812C10.086 9.49538 10.1627 9.53323 10.1751 9.60319L10.8694 13.5267C10.8824 13.6005 10.8163 13.6639 10.7431 13.6478L4.94777 12.3735Z" fill="#FFFDF9"/>
</svg>
