<svg width="114" height="28" viewBox="0 0 114 28" fill="none" xmlns="http://www.w3.org/2000/svg">
<path d="M34.6978 23.327H30.8663L33.5289 8.17407H40.4776C43.7896 8.17407 45.1101 10.5336 44.6555 13.3044C44.2009 16.0753 41.9496 18.2833 38.6809 18.2833H35.5637L34.6978 23.327ZM36.1049 15.2527H38.7675C39.7849 15.2527 40.6075 14.3868 40.8023 13.3261C41.0404 12.2004 40.4776 11.3345 39.4602 11.3345H36.7976L36.1049 15.2527ZM43.8388 23.327L46.588 7.67618H50.3113L49.2722 13.5858C50.2896 12.3736 51.4586 11.8757 52.9089 11.8757C56.156 11.8757 56.4158 14.6033 55.9395 17.0494L54.8572 23.327H51.1339L52.1946 17.2658C52.4327 15.9887 52.2379 14.863 50.8525 14.863C49.532 14.863 48.8609 15.9887 48.6228 17.2658L47.5621 23.327H43.8388ZM69.2993 17.7204C68.7149 20.9458 65.4678 23.5651 61.9393 23.5651C58.4758 23.5651 56.073 20.9675 56.6574 17.7204C57.2419 14.4734 60.5323 11.8757 64.0174 11.8757C67.5459 11.8757 69.8838 14.495 69.2993 17.7204ZM60.2509 17.7204C59.9694 19.3656 60.857 20.4913 62.4805 20.4913C64.104 20.4913 65.4245 19.3656 65.7059 17.7204C65.9873 16.0753 65.0998 14.928 63.4763 14.928C61.8527 14.928 60.5323 16.0969 60.2509 17.7204ZM75.1591 23.5651C71.0245 23.5651 69.033 20.9675 69.6174 17.7637C70.1803 14.56 73.0593 11.8757 76.9125 11.8757C80.3111 11.8757 82.4975 13.9755 81.8048 17.9369L81.7182 18.4131H73.081C72.9078 19.4306 73.8819 20.5778 76.0033 20.5778C77.0857 20.5778 78.1897 20.1666 79.2937 19.3656C79.5751 19.647 80.5276 21.2056 80.7657 21.487C78.969 23.0673 76.9775 23.5651 75.1591 23.5651ZM76.4146 14.6465C75.3539 14.6465 73.9036 15.1228 73.449 16.4216H78.5577C78.6659 15.1444 77.5186 14.6465 76.4146 14.6465ZM81.7872 23.327L83.7571 12.1138H87.4803L87.2206 13.5858C88.238 12.3736 89.4069 11.8757 90.8573 11.8757C94.1044 11.8757 94.3641 14.6033 93.8879 17.0494L92.8055 23.327H89.0822L90.1429 17.2658C90.3161 16.1835 90.1862 14.863 88.8008 14.863C87.4803 14.863 86.8093 15.9887 86.5712 17.2658L85.5105 23.327H81.7872ZM98.0477 23.327H94.3244L96.2943 12.1138H100.018L98.0477 23.327ZM96.4458 9.34301C96.6406 8.23901 97.6364 7.43807 99.0218 7.43807C100.407 7.43807 101.1 8.23901 100.905 9.34301C100.71 10.447 99.6496 11.2263 98.3291 11.2263C96.9653 11.2263 96.251 10.447 96.4458 9.34301ZM107.876 23.327L105.755 19.9501L102.465 23.327H98.4382L98.4815 22.9374L103.937 17.5473L100.798 12.4602L100.863 12.1138H105.062L106.642 14.9496L109.218 12.1138H113.418L113.353 12.4602L108.396 17.5473L111.946 22.9374L111.903 23.327H107.876Z" fill="black"/>
<path d="M10.1655 9.45434L13.61 21.7539C13.6239 21.8037 13.6796 21.8287 13.7261 21.806L25.2289 16.1953C25.2921 16.1645 25.2906 16.074 25.2264 16.0452L10.2791 9.35638C10.215 9.32771 10.1465 9.38674 10.1655 9.45434Z" stroke="black" stroke-width="1.79246"/>
<path d="M16.3204 12.0694L27.37 8.9973C27.4326 8.97987 27.49 9.03821 27.4716 9.10061L23.8366 21.3966C23.8265 21.4309 23.7956 21.4548 23.7599 21.4559L13.5313 21.7904" stroke="black" stroke-width="1.79246"/>
<path d="M19.274 12.2887C19.1983 12.2531 19.2078 12.1425 19.2885 12.1205L26.1371 10.2488C26.2051 10.2302 26.267 10.2935 26.2471 10.361L24.9284 14.8275C24.9128 14.8803 24.8538 14.9069 24.8039 14.8835L19.274 12.2887Z" fill="black" stroke="#FFFDF9" stroke-width="1.08235"/>
<path d="M1.14505 13.8243C0.982832 13.7943 0.946778 13.578 1.09052 13.497L9.4871 8.76886C9.59088 8.71042 9.72156 8.76948 9.74627 8.886L11.1321 15.4205C11.1581 15.5434 11.051 15.6534 10.9274 15.6306L1.14505 13.8243Z" fill="black"/>
<path d="M4.94789 13.0465C4.85178 13.0254 4.83466 12.8957 4.92198 12.8503L10.0231 10.2011C10.0861 10.1684 10.1629 10.2062 10.1752 10.2762L10.8695 14.1997C10.8825 14.2735 10.8164 14.3369 10.7432 14.3208L4.94789 13.0465Z" fill="#FFFDF9"/>
</svg>
