<svg width="166" height="50" viewBox="0 0 166 50" fill="none" xmlns="http://www.w3.org/2000/svg">
<mask id="path-1-inside-1_62_652" fill="white">
<path d="M0 0.0351562H165.169V49.9648H0V0.0351562Z"/>
</mask>
<path d="M164.369 0.0351562V49.9648H165.969V0.0351562H164.369Z" fill="#1C1C1C" fill-opacity="0.1" mask="url(#path-1-inside-1_62_652)"/>
<path d="M12.1657 20.8165L15.6102 33.1161C15.6242 33.1659 15.6798 33.1908 15.7263 33.1682L27.2291 27.5575C27.2923 27.5267 27.2908 27.4361 27.2267 27.4074L12.2793 20.7186C12.2152 20.6899 12.1468 20.7489 12.1657 20.8165Z" stroke="black" stroke-width="1.79246"/>
<path d="M18.3204 23.4316L29.37 20.3595C29.4326 20.3421 29.49 20.4004 29.4716 20.4628L25.8366 32.7588C25.8265 32.7931 25.7956 32.817 25.7599 32.8181L15.5313 33.1526" stroke="black" stroke-width="1.79246"/>
<path d="M21.2739 23.6508C21.1982 23.6153 21.2077 23.5047 21.2884 23.4827L28.137 21.611C28.205 21.5924 28.2669 21.6556 28.247 21.7232L26.9283 26.1897C26.9127 26.2425 26.8537 26.2691 26.8038 26.2457L21.2739 23.6508Z" fill="black" stroke="#FFFDF9" stroke-width="1.08235"/>
<path d="M3.14505 25.1864C2.98283 25.1565 2.94678 24.9401 3.09052 24.8592L11.4871 20.131C11.5909 20.0726 11.7216 20.1317 11.7463 20.2482L13.1321 26.7826C13.1581 26.9056 13.051 27.0156 12.9274 26.9928L3.14505 25.1864Z" fill="black"/>
<path d="M6.94777 24.4087C6.85166 24.3876 6.83454 24.2578 6.92186 24.2125L12.023 21.5633C12.086 21.5305 12.1627 21.5684 12.1751 21.6383L12.8694 25.5619C12.8824 25.6357 12.8163 25.6991 12.7431 25.683L6.94777 24.4087Z" fill="#FFFDF9"/>
<path d="M39.6024 32H35.7708L38.4334 16.847H45.3821C48.6941 16.847 50.0146 19.2066 49.56 21.9774C49.1054 24.7482 46.8541 26.9562 43.5854 26.9562H40.4682L39.6024 32ZM41.0094 23.9256H43.672C44.6894 23.9256 45.512 23.0598 45.7068 21.999C45.945 20.8734 45.3821 20.0075 44.3647 20.0075H41.7021L41.0094 23.9256ZM48.7434 32L51.4925 16.3492H55.2158L54.1768 22.2588C55.1942 21.0466 56.3631 20.5487 57.8135 20.5487C61.0605 20.5487 61.3203 23.2762 60.8441 25.7223L59.7617 32H56.0384L57.0991 25.9388C57.3372 24.6616 57.1424 23.536 55.757 23.536C54.4365 23.536 53.7655 24.6616 53.5274 25.9388L52.4667 32H48.7434ZM74.2039 26.3934C73.6194 29.6188 70.3723 32.2381 66.8439 32.2381C63.3803 32.2381 60.9775 29.6405 61.562 26.3934C62.1464 23.1463 65.4368 20.5487 68.922 20.5487C72.4505 20.5487 74.7883 23.168 74.2039 26.3934ZM65.1554 26.3934C64.874 28.0386 65.7615 29.1642 67.385 29.1642C69.0086 29.1642 70.329 28.0386 70.6105 26.3934C70.8919 24.7482 70.0043 23.6009 68.3808 23.6009C66.7573 23.6009 65.4368 24.7699 65.1554 26.3934ZM80.0636 32.2381C75.929 32.2381 73.9375 29.6405 74.522 26.4367C75.0848 23.2329 77.9639 20.5487 81.8171 20.5487C85.2156 20.5487 87.402 22.6485 86.7093 26.6099L86.6227 27.0861H77.9855C77.8123 28.1035 78.7865 29.2508 80.9079 29.2508C81.9902 29.2508 83.0942 28.8395 84.1982 28.0386C84.4796 28.32 85.4321 29.8786 85.6702 30.16C83.8735 31.7402 81.882 32.2381 80.0636 32.2381ZM81.3192 23.3195C80.2585 23.3195 78.8081 23.7958 78.3535 25.0946H83.4622C83.5705 23.8174 82.4232 23.3195 81.3192 23.3195ZM86.6917 32L88.6616 20.7868H92.3849L92.1251 22.2588C93.1425 21.0466 94.3115 20.5487 95.7618 20.5487C99.0089 20.5487 99.2687 23.2762 98.7924 25.7223L97.7101 32H93.9868L95.0475 25.9388C95.2207 24.8565 95.0908 23.536 93.7054 23.536C92.3849 23.536 91.7138 24.6616 91.4757 25.9388L90.415 32H86.6917ZM102.952 32H99.2289L101.199 20.7868H104.922L102.952 32ZM101.35 18.016C101.545 16.912 102.541 16.111 103.926 16.111C105.312 16.111 106.004 16.912 105.81 18.016C105.615 19.12 104.554 19.8993 103.234 19.8993C101.87 19.8993 101.156 19.12 101.35 18.016ZM112.781 32L110.659 28.6231L107.369 32H103.343L103.386 31.6104L108.841 26.2202L105.702 21.1332L105.767 20.7868H109.967L111.547 23.6226L114.123 20.7868H118.322L118.258 21.1332L113.3 26.2202L116.85 31.6104L116.807 32H112.781Z" fill="black"/>
</svg>
