<svg width="16" height="16" viewBox="0 0 16 16" fill="none" xmlns="http://www.w3.org/2000/svg">
<path d="M11.134 1.53506C11.834 1.02606 12.55 0.593058 13.21 0.380058C13.859 0.170058 14.673 0.113058 15.279 0.720058C15.882 1.32106 15.847 2.13106 15.647 2.79006C15.445 3.45806 15.023 4.18006 14.522 4.88606C13.511 6.31006 12.026 7.87306 10.747 9.13506C9.64902 10.2191 8.61502 10.9741 7.70702 11.4351C7.79624 12.0165 7.74721 12.6107 7.56392 13.1696C7.38062 13.7285 7.06822 14.2364 6.65202 14.6521C6.22102 15.0831 5.58702 15.3431 4.99502 15.5131C4.38102 15.6901 3.70102 15.8001 3.08102 15.8701C2.32259 15.9546 1.56014 15.998 0.797023 16.0001H0.743023C0.546704 15.9982 0.357926 15.9195 0.219008 15.7808C0.0800902 15.642 0.00110915 15.4544 -0.000976562 15.2581L0.742023 15.2501L2.34375e-05 15.2571V15.2031C0.00231444 14.4399 0.0457106 13.6775 0.130023 12.9191C0.197023 12.2721 0.317023 11.6321 0.488023 11.0051C0.658023 10.4141 0.918024 9.77906 1.34802 9.34806C1.76493 8.93069 2.27451 8.61768 2.83527 8.43453C3.39604 8.25137 3.99214 8.20324 4.57502 8.29406C5.04102 7.40106 5.80002 6.38706 6.88902 5.31206C8.16002 4.05706 9.72202 2.56206 11.134 1.53506ZM1.62002 13.0891C1.56902 13.5531 1.53402 14.0181 1.51602 14.4841C1.98202 14.4661 2.44802 14.4311 2.91202 14.3801C3.47544 14.3222 4.03326 14.2188 4.58002 14.0711C5.10602 13.9201 5.43602 13.7461 5.59102 13.5911C6.01298 13.1691 6.25004 12.5968 6.25004 12.0001C6.25004 11.4033 6.01298 10.831 5.59102 10.4091C5.38209 10.2001 5.13405 10.0344 4.86107 9.92132C4.58808 9.80824 4.2955 9.75004 4.00002 9.75004C3.40328 9.75004 2.83098 9.9871 2.40902 10.4091C2.25402 10.5641 2.08002 10.8941 1.92902 11.4191C1.78116 11.9665 1.67783 12.525 1.62002 13.0891ZM12.016 2.74906C10.792 3.63906 9.41102 4.93806 8.19402 6.13306L9.91202 7.85106C11.122 6.64606 12.422 5.25406 13.299 4.01806C13.769 3.35606 14.079 2.79106 14.211 2.35606C14.345 1.91206 14.243 1.80506 14.22 1.78106H14.219V1.78006C14.205 1.76606 14.106 1.66706 13.671 1.80706C13.239 1.94706 12.676 2.26906 12.016 2.74906ZM7.18402 10.0151L7.18302 10.0161C7.76349 9.69135 8.3096 9.30873 8.81302 8.87406L7.15502 7.21606C6.71416 7.71067 6.32512 8.24915 5.99402 8.82306C6.47602 9.12506 6.88302 9.53306 7.18402 10.0151Z" fill="#57606A"/>
</svg>
