<svg width="16" height="16" viewBox="0 0 16 16" fill="none" xmlns="http://www.w3.org/2000/svg">
<path d="M10.5611 8.07312C11.5456 8.53847 12.3851 9.26279 12.9896 10.1685C13.5941 11.0743 13.941 12.1274 13.9931 13.2151C13.9999 13.3148 13.9868 13.4148 13.9545 13.5093C13.9222 13.6038 13.8713 13.6909 13.8049 13.7655C13.7384 13.8401 13.6578 13.9007 13.5676 13.9436C13.4775 13.9866 13.3796 14.0112 13.2798 14.0158C13.1801 14.0205 13.0804 14.0052 12.9866 13.9708C12.8928 13.9364 12.8069 13.8836 12.7338 13.8156C12.6606 13.7475 12.6019 13.6655 12.5609 13.5744C12.5199 13.4833 12.4975 13.385 12.4951 13.2851C12.4405 12.1296 11.9432 11.0395 11.1062 10.2411C10.2692 9.44265 9.15682 8.99719 8.00006 8.99719C6.8433 8.99719 5.73097 9.44265 4.89397 10.2411C4.05696 11.0395 3.55958 12.1296 3.50506 13.2851C3.49159 13.4807 3.40208 13.6632 3.25568 13.7936C3.10929 13.924 2.91766 13.9919 2.72183 13.9828C2.526 13.9736 2.34153 13.8882 2.20794 13.7447C2.07434 13.6012 2.00224 13.4111 2.00706 13.2151C2.05892 12.1275 2.4056 11.0744 3.00997 10.1686C3.61434 9.26288 4.45365 8.53852 5.43806 8.07312C4.80708 7.54681 4.35353 6.8389 4.13912 6.0457C3.9247 5.25249 3.95983 4.41249 4.23973 3.63995C4.51962 2.86742 5.0307 2.19986 5.70343 1.72807C6.37616 1.25628 7.17789 1.00317 7.99956 1.00317C8.82124 1.00317 9.62297 1.25628 10.2957 1.72807C10.9684 2.19986 11.4795 2.86742 11.7594 3.63995C12.0393 4.41249 12.0744 5.25249 11.86 6.0457C11.6456 6.8389 11.1921 7.54681 10.5611 8.07312ZM10.5001 5.00012C10.5001 4.33708 10.2367 3.7012 9.76783 3.23235C9.29899 2.76351 8.6631 2.50012 8.00006 2.50012C7.33702 2.50012 6.70114 2.76351 6.2323 3.23235C5.76346 3.7012 5.50006 4.33708 5.50006 5.00012C5.50006 5.66316 5.76346 6.29905 6.2323 6.76789C6.70114 7.23673 7.33702 7.50012 8.00006 7.50012C8.6631 7.50012 9.29899 7.23673 9.76783 6.76789C10.2367 6.29905 10.5001 5.66316 10.5001 5.00012Z" fill="#57606A"/>
</svg>
