<svg width="16" height="22" viewBox="0 0 16 22" fill="none" xmlns="http://www.w3.org/2000/svg">
<path d="M2.39434 12.9713C2.28342 12.8523 2.14967 12.7568 2.00105 12.6906C1.85243 12.6244 1.692 12.5888 1.52932 12.5859C1.36664 12.583 1.20506 12.613 1.0542 12.6739C0.903334 12.7348 0.766293 12.8255 0.651245 12.9406C0.536197 13.0556 0.4455 13.1927 0.384565 13.3435C0.32363 13.4944 0.293705 13.656 0.296575 13.8187C0.299446 13.9813 0.335052 14.1418 0.401271 14.2904C0.46749 14.439 0.562964 14.5728 0.681999 14.6837L7.14366 21.1453C7.37083 21.3722 7.67877 21.4997 7.99983 21.4997C8.3209 21.4997 8.62883 21.3722 8.856 21.1453L15.3177 14.6837C15.4367 14.5728 15.5322 14.439 15.5984 14.2904C15.6646 14.1418 15.7002 13.9813 15.7031 13.8187C15.706 13.656 15.676 13.4944 15.6151 13.3435C15.5542 13.1927 15.4635 13.0556 15.3484 12.9406C15.2334 12.8255 15.0963 12.7348 14.9455 12.6739C14.7946 12.613 14.633 12.583 14.4703 12.5859C14.3077 12.5888 14.1472 12.6244 13.9986 12.6906C13.85 12.7568 13.7162 12.8523 13.6053 12.9713L9.2114 17.3653V1.71189C9.2114 1.39056 9.08375 1.08239 8.85654 0.855183C8.62932 0.62797 8.32116 0.500324 7.99983 0.500324C7.67851 0.500324 7.37034 0.62797 7.14313 0.855183C6.91592 1.08239 6.78827 1.39056 6.78827 1.71189V17.3653L2.39434 12.9713Z" fill="black"/>
</svg>
