<svg width="15" height="15" viewBox="0 0 15 15" fill="none" xmlns="http://www.w3.org/2000/svg">
<path d="M7.2655 14.3442C5.3115 14.3442 3.65617 13.6666 2.2995 12.3112C0.943503 10.9552 0.265503 9.30057 0.265503 7.34724C0.265503 5.39391 0.943503 3.73857 2.2995 2.38124C3.6555 1.02391 5.31084 0.344905 7.2655 0.344238C8.45417 0.344238 9.56717 0.626572 10.6045 1.19124C11.6412 1.75591 12.4768 2.54424 13.1115 3.55624V0.344238H14.1115V5.57424H8.8815V4.57424H12.5815C12.0602 3.57757 11.3275 2.78991 10.3835 2.21124C9.4395 1.63257 8.40017 1.34357 7.2655 1.34424C5.59884 1.34424 4.18217 1.92757 3.0155 3.09424C1.84884 4.2609 1.2655 5.67757 1.2655 7.34424C1.2655 9.01091 1.84884 10.4276 3.0155 11.5942C4.18217 12.7609 5.59884 13.3442 7.2655 13.3442C8.54884 13.3442 9.70717 12.9776 10.7405 12.2442C11.7738 11.5109 12.4988 10.5442 12.9155 9.34424H13.9775C13.5362 10.8416 12.6982 12.0492 11.4635 12.9672C10.2288 13.8852 8.8295 14.3442 7.2655 14.3442Z" fill="black"/>
</svg>
