<svg width="15" height="14" viewBox="0 0 15 14" fill="none" xmlns="http://www.w3.org/2000/svg">
<path d="M7.57715 14C5.62315 14 3.96781 13.3223 2.61115 11.967C1.25515 10.611 0.577148 8.95633 0.577148 7.003C0.577148 5.04967 1.25515 3.39433 2.61115 2.037C3.96715 0.679667 5.62248 0.000666667 7.57715 0C8.76581 0 9.87882 0.282333 10.9161 0.847C11.9528 1.41167 12.7885 2.2 13.4231 3.212V0H14.4231V5.23H9.19315V4.23H12.8931C12.3718 3.23333 11.6391 2.44567 10.6951 1.867C9.75115 1.28833 8.71181 0.999333 7.57715 1C5.91048 1 4.49381 1.58333 3.32715 2.75C2.16048 3.91667 1.57715 5.33333 1.57715 7C1.57715 8.66667 2.16048 10.0833 3.32715 11.25C4.49381 12.4167 5.91048 13 7.57715 13C8.86048 13 10.0188 12.6333 11.0521 11.9C12.0855 11.1667 12.8105 10.2 13.2271 9H14.2891C13.8478 10.4973 13.0098 11.705 11.7751 12.623C10.5405 13.541 9.14115 14 7.57715 14Z" fill="#008753"/>
</svg>
