<svg width="16" height="22" viewBox="0 0 16 22" fill="none" xmlns="http://www.w3.org/2000/svg">
<path d="M2.39434 9.02866C2.28342 9.1477 2.14967 9.24317 2.00105 9.30939C1.85243 9.37561 1.692 9.41122 1.52932 9.41409C1.36664 9.41696 1.20506 9.38704 1.0542 9.3261C0.903334 9.26516 0.766293 9.17447 0.651245 9.05942C0.536197 8.94437 0.4455 8.80733 0.384565 8.65647C0.32363 8.50561 0.293705 8.34402 0.296575 8.18134C0.299446 8.01867 0.335052 7.85823 0.401271 7.70962C0.46749 7.561 0.562964 7.42724 0.681999 7.31632L7.14366 0.854661C7.37083 0.627775 7.67877 0.500336 7.99983 0.500336C8.3209 0.500336 8.62883 0.627775 8.856 0.854661L15.3177 7.31632C15.4367 7.42724 15.5322 7.561 15.5984 7.70962C15.6646 7.85823 15.7002 8.01867 15.7031 8.18134C15.706 8.34402 15.676 8.50561 15.6151 8.65647C15.5542 8.80733 15.4635 8.94437 15.3484 9.05942C15.2334 9.17447 15.0963 9.26516 14.9455 9.3261C14.7946 9.38704 14.633 9.41696 14.4703 9.41409C14.3077 9.41122 14.1472 9.37561 13.9986 9.30939C13.85 9.24317 13.7162 9.1477 13.6053 9.02866L9.2114 4.63473V20.2881C9.2114 20.6094 9.08375 20.9176 8.85654 21.1448C8.62932 21.372 8.32116 21.4997 7.99983 21.4997C7.67851 21.4997 7.37034 21.372 7.14313 21.1448C6.91592 20.9176 6.78827 20.6094 6.78827 20.2881V4.63473L2.39434 9.02866Z" fill="black"/>
</svg>
