<svg width="24" height="24" viewBox="0 0 24 24" fill="none" xmlns="http://www.w3.org/2000/svg">
<path d="M19.887 12.531L21.243 13.7385C21.4934 13.9475 21.6607 14.2392 21.7146 14.5608C21.7685 14.8825 21.7055 15.2128 21.537 15.492L19.902 18.285C19.7751 18.4988 19.594 18.6753 19.377 18.7965C19.1574 18.918 18.9109 18.9825 18.66 18.984C18.5043 18.985 18.3494 18.9617 18.201 18.915L16.4655 18.342C16.1615 18.537 15.8455 18.7115 15.5175 18.8655L15.153 20.625C15.0855 20.9487 14.9053 21.2379 14.6445 21.441C14.3803 21.6478 14.0528 21.7569 13.7175 21.75H10.332C9.99658 21.7569 9.6691 21.6478 9.40496 21.441C9.14468 21.2376 8.96502 20.9485 8.89796 20.625L8.53196 18.8655C8.20826 18.7094 7.89419 18.5341 7.59146 18.3405L5.84996 18.915C5.70146 18.9617 5.54661 18.985 5.39096 18.984C5.14055 18.9822 4.89457 18.9178 4.67546 18.7965C4.45862 18.6757 4.27751 18.4998 4.15046 18.2865L2.45696 15.492C2.2809 15.2103 2.21363 14.874 2.26775 14.5462C2.32187 14.2185 2.49368 13.9217 2.75096 13.7115L4.10546 12V11.469L2.74946 10.2615C2.49905 10.0525 2.33174 9.76084 2.27781 9.43919C2.22388 9.11754 2.2869 8.78721 2.45546 8.50801L4.14896 5.71501C4.27581 5.50121 4.45693 5.32474 4.67396 5.20351C4.89307 5.08226 5.13905 5.0178 5.38946 5.01601C5.54371 5.00628 5.69853 5.02044 5.84846 5.05801L7.55546 5.65801C7.86046 5.46301 8.17646 5.28851 8.50346 5.13451L8.86946 3.37501C8.93652 3.05156 9.11618 2.7624 9.37646 2.55901C9.6406 2.35223 9.96808 2.24307 10.3035 2.25001H13.6605C13.9958 2.24307 14.3233 2.35223 14.5875 2.55901C14.85 2.76451 15.03 3.05401 15.0945 3.37501L15.4605 5.13451C15.7855 5.28951 16.099 5.46451 16.401 5.65951L18.144 5.08651C18.3374 5.02358 18.5418 5.00148 18.7442 5.02162C18.9467 5.04176 19.1427 5.1037 19.32 5.20351C19.5375 5.32651 19.7175 5.50351 19.845 5.71351L21.537 8.50801C21.7154 8.78734 21.7861 9.12205 21.7358 9.44968C21.6856 9.77731 21.5179 10.0755 21.264 10.2885L19.887 11.4615V12.531Z" stroke="black"/>
<path d="M15.75 12C15.75 12.9946 15.3549 13.9484 14.6517 14.6517C13.9484 15.3549 12.9946 15.75 12 15.75C11.0054 15.75 10.0516 15.3549 9.34835 14.6517C8.64509 13.9484 8.25 12.9946 8.25 12C8.25 11.0054 8.64509 10.0516 9.34835 9.34835C10.0516 8.64509 11.0054 8.25 12 8.25C12.9946 8.25 13.9484 8.64509 14.6517 9.34835C15.3549 10.0516 15.75 11.0054 15.75 12Z" stroke="black"/>
</svg>
