<svg width="40" height="40" viewBox="0 0 40 40" fill="none" xmlns="http://www.w3.org/2000/svg">
<path d="M33.3334 3.33325H16.6667C15.3406 3.33325 14.0688 3.86004 13.1312 4.79772C12.1935 5.7354 11.6667 7.00717 11.6667 8.33325V19.9999C11.6667 21.326 12.1935 22.5978 13.1312 23.5355C14.0688 24.4731 15.3406 24.9999 16.6667 24.9999H33.3334C34.6594 24.9999 35.9312 24.4731 36.8689 23.5355C37.8066 22.5978 38.3334 21.326 38.3334 19.9999V8.33325C38.3334 7.00717 37.8066 5.7354 36.8689 4.79772C35.9312 3.86004 34.6594 3.33325 33.3334 3.33325ZM35 19.9999C35 20.4419 34.8244 20.8659 34.5119 21.1784C34.1993 21.491 33.7754 21.6666 33.3334 21.6666H16.6667C16.2247 21.6666 15.8007 21.491 15.4882 21.1784C15.1756 20.8659 15 20.4419 15 19.9999V8.33325C15 7.89122 15.1756 7.4673 15.4882 7.15474C15.8007 6.84218 16.2247 6.66659 16.6667 6.66659H33.3334C33.7754 6.66659 34.1993 6.84218 34.5119 7.15474C34.8244 7.4673 35 7.89122 35 8.33325V19.9999ZM29.1667 13.3333C28.5497 13.3353 27.9555 13.5671 27.5 13.9833C27.1416 13.6575 26.6963 13.4429 26.2183 13.3654C25.7402 13.288 25.2499 13.3511 24.807 13.547C24.3641 13.743 23.9877 14.0633 23.7234 14.4692C23.4592 14.8751 23.3185 15.3489 23.3185 15.8333C23.3185 16.3176 23.4592 16.7914 23.7234 17.1973C23.9877 17.6032 24.3641 17.9235 24.807 18.1195C25.2499 18.3154 25.7402 18.3785 26.2183 18.3011C26.6963 18.2236 27.1416 18.009 27.5 17.6833C27.801 17.9568 28.1642 18.1528 28.558 18.2542C28.9519 18.3556 29.3645 18.3595 29.7602 18.2653C30.1559 18.1712 30.5226 17.9819 30.8286 17.714C31.1345 17.446 31.3705 17.1074 31.516 16.7277C31.6615 16.3479 31.7122 15.9383 31.6636 15.5345C31.615 15.1307 31.4686 14.7449 31.2372 14.4105C31.0057 14.076 30.6961 13.8031 30.3353 13.6154C29.9745 13.4277 29.5734 13.3308 29.1667 13.3333ZM26.6667 28.3333C26.2247 28.3333 25.8007 28.5088 25.4882 28.8214C25.1756 29.134 25 29.5579 25 29.9999V31.6666C25 32.1086 24.8244 32.5325 24.5119 32.8451C24.1993 33.1577 23.7754 33.3333 23.3334 33.3333H6.66669C6.22466 33.3333 5.80074 33.1577 5.48818 32.8451C5.17562 32.5325 5.00002 32.1086 5.00002 31.6666V24.9999H6.66669C7.10871 24.9999 7.53264 24.8243 7.8452 24.5118C8.15776 24.1992 8.33335 23.7753 8.33335 23.3333C8.33335 22.8912 8.15776 22.4673 7.8452 22.1547C7.53264 21.8422 7.10871 21.6666 6.66669 21.6666H5.00002V19.9999C5.00002 19.5579 5.17562 19.134 5.48818 18.8214C5.80074 18.5088 6.22466 18.3333 6.66669 18.3333C7.10871 18.3333 7.53264 18.1577 7.8452 17.8451C8.15776 17.5325 8.33335 17.1086 8.33335 16.6666C8.33335 16.2246 8.15776 15.8006 7.8452 15.4881C7.53264 15.1755 7.10871 14.9999 6.66669 14.9999C5.3406 14.9999 4.06884 15.5267 3.13115 16.4644C2.19347 17.4021 1.66669 18.6738 1.66669 19.9999V31.6666C1.66669 32.9927 2.19347 34.2644 3.13115 35.2021C4.06884 36.1398 5.3406 36.6666 6.66669 36.6666H23.3334C24.6594 36.6666 25.9312 36.1398 26.8689 35.2021C27.8066 34.2644 28.3334 32.9927 28.3334 31.6666V29.9999C28.3334 29.5579 28.1578 29.134 27.8452 28.8214C27.5326 28.5088 27.1087 28.3333 26.6667 28.3333ZM10 29.9999H11.6667C12.1087 29.9999 12.5326 29.8243 12.8452 29.5118C13.1578 29.1992 13.3334 28.7753 13.3334 28.3333C13.3334 27.8912 13.1578 27.4673 12.8452 27.1547C12.5326 26.8422 12.1087 26.6666 11.6667 26.6666H10C9.55799 26.6666 9.13407 26.8422 8.82151 27.1547C8.50895 27.4673 8.33335 27.8912 8.33335 28.3333C8.33335 28.7753 8.50895 29.1992 8.82151 29.5118C9.13407 29.8243 9.55799 29.9999 10 29.9999Z" fill="black"/>
</svg>
