<svg width="645" height="704" viewBox="0 0 645 704" fill="none" xmlns="http://www.w3.org/2000/svg">
<rect x="4" y="4" width="684" height="696" rx="12" fill="#FFFCF7"/>
<rect x="4" y="4" width="684" height="696" rx="12" stroke="black" stroke-width="8"/>
<path d="M118.144 118.4H119.8V131H118.144V125.33H112.024V131H110.35V118.4H112.024V123.746H118.144V118.4ZM129.21 129.866C128.286 130.778 127.164 131.234 125.844 131.234C124.524 131.234 123.402 130.778 122.478 129.866C121.566 128.954 121.11 127.832 121.11 126.5C121.11 125.168 121.566 124.046 122.478 123.134C123.402 122.222 124.524 121.766 125.844 121.766C127.164 121.766 128.286 122.222 129.21 123.134C130.134 124.046 130.596 125.168 130.596 126.5C130.596 127.832 130.134 128.954 129.21 129.866ZM125.844 129.704C126.744 129.704 127.5 129.398 128.112 128.786C128.724 128.174 129.03 127.412 129.03 126.5C129.03 125.588 128.724 124.826 128.112 124.214C127.5 123.602 126.744 123.296 125.844 123.296C124.956 123.296 124.206 123.602 123.594 124.214C122.982 124.826 122.676 125.588 122.676 126.5C122.676 127.412 122.982 128.174 123.594 128.786C124.206 129.398 124.956 129.704 125.844 129.704ZM141.973 122H143.611L140.821 131H139.219L137.113 124.34L135.007 131H133.405L130.615 122H132.253L134.233 128.84L136.357 122H137.869L139.993 128.858L141.973 122ZM158.003 121.766C159.011 121.766 159.827 122.096 160.451 122.756C161.075 123.404 161.387 124.286 161.387 125.402V131H159.821V125.456C159.821 124.76 159.641 124.22 159.281 123.836C158.921 123.452 158.441 123.26 157.841 123.26C157.169 123.26 156.629 123.488 156.221 123.944C155.825 124.388 155.627 125.072 155.627 125.996V131H154.061V125.456C154.061 124.76 153.887 124.22 153.539 123.836C153.203 123.452 152.741 123.26 152.153 123.26C151.493 123.26 150.941 123.488 150.497 123.944C150.065 124.4 149.849 125.084 149.849 125.996V131H148.283V122H149.849V123.206C150.461 122.246 151.355 121.766 152.531 121.766C153.743 121.766 154.625 122.276 155.177 123.296C155.801 122.276 156.743 121.766 158.003 121.766ZM169.048 122H170.614V131H169.048V129.704C168.412 130.724 167.44 131.234 166.132 131.234C165.076 131.234 164.23 130.904 163.594 130.244C162.958 129.572 162.64 128.666 162.64 127.526V122H164.206V127.436C164.206 128.168 164.404 128.738 164.8 129.146C165.196 129.542 165.742 129.74 166.438 129.74C167.218 129.74 167.848 129.5 168.328 129.02C168.808 128.528 169.048 127.778 169.048 126.77V122ZM176.508 131.234C175.152 131.234 174.024 130.784 173.124 129.884C172.224 128.972 171.774 127.844 171.774 126.5C171.774 125.156 172.224 124.034 173.124 123.134C174.024 122.222 175.152 121.766 176.508 121.766C177.396 121.766 178.194 121.982 178.902 122.414C179.61 122.834 180.138 123.404 180.486 124.124L179.172 124.88C178.944 124.4 178.59 124.016 178.11 123.728C177.642 123.44 177.108 123.296 176.508 123.296C175.608 123.296 174.852 123.602 174.24 124.214C173.64 124.826 173.34 125.588 173.34 126.5C173.34 127.4 173.64 128.156 174.24 128.768C174.852 129.38 175.608 129.686 176.508 129.686C177.108 129.686 177.648 129.548 178.128 129.272C178.608 128.984 178.974 128.6 179.226 128.12L180.558 128.894C180.174 129.602 179.622 130.172 178.902 130.604C178.182 131.024 177.384 131.234 176.508 131.234ZM185.866 121.766C186.922 121.766 187.768 122.102 188.404 122.774C189.04 123.434 189.358 124.334 189.358 125.474V131H187.792V125.564C187.792 124.832 187.594 124.268 187.198 123.872C186.802 123.464 186.256 123.26 185.56 123.26C184.78 123.26 184.15 123.506 183.67 123.998C183.19 124.478 182.95 125.222 182.95 126.23V131H181.384V118.4H182.95V123.296C183.586 122.276 184.558 121.766 185.866 121.766ZM202.056 122H203.622V131H202.056V129.452C201.276 130.64 200.142 131.234 198.654 131.234C197.394 131.234 196.32 130.778 195.432 129.866C194.544 128.942 194.1 127.82 194.1 126.5C194.1 125.18 194.544 124.064 195.432 123.152C196.32 122.228 197.394 121.766 198.654 121.766C200.142 121.766 201.276 122.36 202.056 123.548V122ZM198.852 129.722C199.764 129.722 200.526 129.416 201.138 128.804C201.75 128.18 202.056 127.412 202.056 126.5C202.056 125.588 201.75 124.826 201.138 124.214C200.526 123.59 199.764 123.278 198.852 123.278C197.952 123.278 197.196 123.59 196.584 124.214C195.972 124.826 195.666 125.588 195.666 126.5C195.666 127.412 195.972 128.18 196.584 128.804C197.196 129.416 197.952 129.722 198.852 129.722ZM206.841 123.512C207.357 122.396 208.293 121.838 209.649 121.838V123.476C208.881 123.44 208.221 123.644 207.669 124.088C207.117 124.532 206.841 125.246 206.841 126.23V131H205.275V122H206.841V123.512ZM211.067 127.22C211.223 128.024 211.589 128.648 212.165 129.092C212.753 129.536 213.473 129.758 214.325 129.758C215.513 129.758 216.377 129.32 216.917 128.444L218.249 129.2C217.373 130.556 216.053 131.234 214.289 131.234C212.861 131.234 211.697 130.79 210.797 129.902C209.909 129.002 209.465 127.868 209.465 126.5C209.465 125.144 209.903 124.016 210.779 123.116C211.655 122.216 212.789 121.766 214.181 121.766C215.501 121.766 216.575 122.234 217.403 123.17C218.243 124.094 218.663 125.21 218.663 126.518C218.663 126.746 218.645 126.98 218.609 127.22H211.067ZM214.181 123.242C213.341 123.242 212.645 123.482 212.093 123.962C211.541 124.43 211.199 125.06 211.067 125.852H217.079C216.947 125 216.611 124.352 216.071 123.908C215.531 123.464 214.901 123.242 214.181 123.242ZM229.805 122H231.479L227.807 131.558C227.423 132.578 226.883 133.352 226.187 133.88C225.503 134.42 224.711 134.66 223.811 134.6V133.142C224.915 133.226 225.725 132.614 226.241 131.306L226.403 130.964L222.479 122H224.153L227.213 129.056L229.805 122ZM239.311 129.866C238.387 130.778 237.265 131.234 235.945 131.234C234.625 131.234 233.503 130.778 232.579 129.866C231.667 128.954 231.211 127.832 231.211 126.5C231.211 125.168 231.667 124.046 232.579 123.134C233.503 122.222 234.625 121.766 235.945 121.766C237.265 121.766 238.387 122.222 239.311 123.134C240.235 124.046 240.697 125.168 240.697 126.5C240.697 127.832 240.235 128.954 239.311 129.866ZM235.945 129.704C236.845 129.704 237.601 129.398 238.213 128.786C238.825 128.174 239.131 127.412 239.131 126.5C239.131 125.588 238.825 124.826 238.213 124.214C237.601 123.602 236.845 123.296 235.945 123.296C235.057 123.296 234.307 123.602 233.695 124.214C233.083 124.826 232.777 125.588 232.777 126.5C232.777 127.412 233.083 128.174 233.695 128.786C234.307 129.398 235.057 129.704 235.945 129.704ZM248.034 122H249.6V131H248.034V129.704C247.398 130.724 246.426 131.234 245.118 131.234C244.062 131.234 243.216 130.904 242.58 130.244C241.944 129.572 241.626 128.666 241.626 127.526V122H243.192V127.436C243.192 128.168 243.39 128.738 243.786 129.146C244.182 129.542 244.728 129.74 245.424 129.74C246.204 129.74 246.834 129.5 247.314 129.02C247.794 128.528 248.034 127.778 248.034 126.77V122ZM256.394 124.43C256.394 124.778 256.568 125.06 256.916 125.276C257.264 125.48 257.684 125.648 258.176 125.78C258.668 125.9 259.16 126.044 259.652 126.212C260.144 126.368 260.564 126.644 260.912 127.04C261.26 127.424 261.434 127.922 261.434 128.534C261.434 129.35 261.116 130.004 260.48 130.496C259.856 130.988 259.052 131.234 258.068 131.234C257.192 131.234 256.442 131.042 255.818 130.658C255.194 130.274 254.75 129.764 254.486 129.128L255.836 128.354C255.98 128.786 256.25 129.128 256.646 129.38C257.042 129.632 257.516 129.758 258.068 129.758C258.584 129.758 259.01 129.662 259.346 129.47C259.682 129.266 259.85 128.954 259.85 128.534C259.85 128.186 259.676 127.91 259.328 127.706C258.98 127.49 258.56 127.322 258.068 127.202C257.576 127.07 257.084 126.92 256.592 126.752C256.1 126.584 255.68 126.308 255.332 125.924C254.984 125.54 254.81 125.048 254.81 124.448C254.81 123.668 255.11 123.026 255.71 122.522C256.322 122.018 257.084 121.766 257.996 121.766C258.728 121.766 259.376 121.934 259.94 122.27C260.516 122.594 260.948 123.05 261.236 123.638L259.922 124.376C259.598 123.608 258.956 123.224 257.996 123.224C257.552 123.224 257.174 123.332 256.862 123.548C256.55 123.752 256.394 124.046 256.394 124.43ZM272.818 122H274.456L271.666 131H270.064L267.958 124.34L265.852 131H264.25L261.46 122H263.098L265.078 128.84L267.202 122H268.714L270.838 128.858L272.818 122ZM282.448 122H284.014V131H282.448V129.452C281.668 130.64 280.534 131.234 279.046 131.234C277.786 131.234 276.712 130.778 275.824 129.866C274.936 128.942 274.492 127.82 274.492 126.5C274.492 125.18 274.936 124.064 275.824 123.152C276.712 122.228 277.786 121.766 279.046 121.766C280.534 121.766 281.668 122.36 282.448 123.548V122ZM279.244 129.722C280.156 129.722 280.918 129.416 281.53 128.804C282.142 128.18 282.448 127.412 282.448 126.5C282.448 125.588 282.142 124.826 281.53 124.214C280.918 123.59 280.156 123.278 279.244 123.278C278.344 123.278 277.588 123.59 276.976 124.214C276.364 124.826 276.058 125.588 276.058 126.5C276.058 127.412 276.364 128.18 276.976 128.804C277.588 129.416 278.344 129.722 279.244 129.722ZM290.635 121.766C291.895 121.766 292.969 122.228 293.857 123.152C294.745 124.064 295.189 125.18 295.189 126.5C295.189 127.82 294.745 128.942 293.857 129.866C292.969 130.778 291.895 131.234 290.635 131.234C289.147 131.234 288.013 130.64 287.233 129.452V134.6H285.667V122H287.233V123.548C288.013 122.36 289.147 121.766 290.635 121.766ZM290.437 129.722C291.337 129.722 292.093 129.416 292.705 128.804C293.317 128.18 293.623 127.412 293.623 126.5C293.623 125.588 293.317 124.826 292.705 124.214C292.093 123.59 291.337 123.278 290.437 123.278C289.525 123.278 288.763 123.59 288.151 124.214C287.539 124.826 287.233 125.588 287.233 126.5C287.233 127.412 287.539 128.18 288.151 128.804C288.763 129.416 289.525 129.722 290.437 129.722ZM301.306 121.766C302.566 121.766 303.64 122.228 304.528 123.152C305.416 124.064 305.86 125.18 305.86 126.5C305.86 127.82 305.416 128.942 304.528 129.866C303.64 130.778 302.566 131.234 301.306 131.234C299.818 131.234 298.684 130.64 297.904 129.452V134.6H296.338V122H297.904V123.548C298.684 122.36 299.818 121.766 301.306 121.766ZM301.108 129.722C302.008 129.722 302.764 129.416 303.376 128.804C303.988 128.18 304.294 127.412 304.294 126.5C304.294 125.588 303.988 124.826 303.376 124.214C302.764 123.59 302.008 123.278 301.108 123.278C300.196 123.278 299.434 123.59 298.822 124.214C298.21 124.826 297.904 125.588 297.904 126.5C297.904 127.412 298.21 128.18 298.822 128.804C299.434 129.416 300.196 129.722 301.108 129.722ZM307.8 120.362C307.5 120.362 307.248 120.26 307.044 120.056C306.84 119.852 306.738 119.606 306.738 119.318C306.738 119.03 306.84 118.784 307.044 118.58C307.248 118.364 307.5 118.256 307.8 118.256C308.088 118.256 308.334 118.364 308.538 118.58C308.742 118.784 308.844 119.03 308.844 119.318C308.844 119.606 308.742 119.852 308.538 120.056C308.334 120.26 308.088 120.362 307.8 120.362ZM307.008 131V122H308.574V131H307.008ZM314.725 121.766C315.781 121.766 316.627 122.102 317.263 122.774C317.899 123.434 318.217 124.334 318.217 125.474V131H316.651V125.564C316.651 124.832 316.453 124.268 316.057 123.872C315.661 123.464 315.115 123.26 314.419 123.26C313.639 123.26 313.009 123.506 312.529 123.998C312.049 124.478 311.809 125.222 311.809 126.23V131H310.243V122H311.809V123.296C312.445 122.276 313.417 121.766 314.725 121.766ZM327.153 122H328.701V130.622C328.701 131.954 328.251 132.986 327.351 133.718C326.451 134.462 325.371 134.834 324.111 134.834C323.103 134.834 322.233 134.642 321.501 134.258C320.769 133.886 320.217 133.346 319.845 132.638L321.213 131.864C321.705 132.872 322.683 133.376 324.147 133.376C325.083 133.376 325.815 133.13 326.343 132.638C326.883 132.146 327.153 131.474 327.153 130.622V129.344C326.361 130.544 325.233 131.144 323.769 131.144C322.485 131.144 321.399 130.688 320.511 129.776C319.623 128.864 319.179 127.754 319.179 126.446C319.179 125.138 319.623 124.034 320.511 123.134C321.399 122.222 322.485 121.766 323.769 121.766C325.245 121.766 326.373 122.36 327.153 123.548V122ZM321.663 128.732C322.275 129.344 323.037 129.65 323.949 129.65C324.861 129.65 325.623 129.344 326.235 128.732C326.847 128.12 327.153 127.358 327.153 126.446C327.153 125.546 326.847 124.79 326.235 124.178C325.623 123.566 324.861 123.26 323.949 123.26C323.037 123.26 322.275 123.566 321.663 124.178C321.051 124.79 320.745 125.546 320.745 126.446C320.745 127.358 321.051 128.12 321.663 128.732ZM332.803 127.31C332.803 126.782 332.917 126.29 333.145 125.834C333.373 125.378 333.649 124.988 333.973 124.664C334.297 124.34 334.621 124.034 334.945 123.746C335.269 123.446 335.545 123.122 335.773 122.774C336.001 122.414 336.115 122.036 336.115 121.64C336.115 121.04 335.905 120.584 335.485 120.272C335.077 119.948 334.543 119.786 333.883 119.786C332.563 119.786 331.717 120.368 331.345 121.532L329.923 120.74C330.223 119.9 330.733 119.264 331.453 118.832C332.173 118.388 332.989 118.166 333.901 118.166C334.969 118.166 335.881 118.466 336.637 119.066C337.405 119.666 337.789 120.5 337.789 121.568C337.789 122.072 337.675 122.546 337.447 122.99C337.219 123.434 336.943 123.818 336.619 124.142C336.295 124.466 335.971 124.784 335.647 125.096C335.323 125.396 335.047 125.738 334.819 126.122C334.591 126.494 334.477 126.89 334.477 127.31H332.803ZM333.631 131.198C333.307 131.198 333.031 131.084 332.803 130.856C332.575 130.628 332.461 130.352 332.461 130.028C332.461 129.704 332.575 129.428 332.803 129.2C333.031 128.972 333.307 128.858 333.631 128.858C333.967 128.858 334.243 128.972 334.459 129.2C334.687 129.428 334.801 129.704 334.801 130.028C334.801 130.352 334.687 130.628 334.459 130.856C334.243 131.084 333.967 131.198 333.631 131.198Z" fill="black"/>
<path d="M140.691 267.451H142.611V278.651H140.403V269.787L138.291 270.379L137.747 268.491L140.691 267.451ZM146.703 278.459C146.436 278.726 146.116 278.859 145.743 278.859C145.37 278.859 145.05 278.726 144.783 278.459C144.516 278.193 144.383 277.873 144.383 277.499C144.383 277.126 144.516 276.806 144.783 276.539C145.05 276.273 145.37 276.139 145.743 276.139C146.116 276.139 146.436 276.273 146.703 276.539C146.97 276.806 147.103 277.126 147.103 277.499C147.103 277.873 146.97 278.193 146.703 278.459ZM152.276 278.875C150.878 278.875 149.78 278.347 148.98 277.291C148.19 276.225 147.796 274.811 147.796 273.051C147.796 271.291 148.19 269.883 148.98 268.827C149.78 267.761 150.878 267.227 152.276 267.227C153.684 267.227 154.782 267.761 155.572 268.827C156.361 269.883 156.756 271.291 156.756 273.051C156.756 274.811 156.361 276.225 155.572 277.291C154.782 278.347 153.684 278.875 152.276 278.875ZM150.58 275.787C150.964 276.406 151.529 276.715 152.276 276.715C153.022 276.715 153.588 276.401 153.972 275.771C154.366 275.142 154.564 274.235 154.564 273.051C154.564 271.857 154.366 270.945 153.972 270.315C153.588 269.686 153.022 269.371 152.276 269.371C151.529 269.371 150.964 269.686 150.58 270.315C150.196 270.945 150.004 271.857 150.004 273.051C150.004 274.246 150.196 275.158 150.58 275.787ZM162.194 278.875C160.797 278.875 159.698 278.347 158.898 277.291C158.109 276.225 157.714 274.811 157.714 273.051C157.714 271.291 158.109 269.883 158.898 268.827C159.698 267.761 160.797 267.227 162.194 267.227C163.602 267.227 164.701 267.761 165.49 268.827C166.279 269.883 166.674 271.291 166.674 273.051C166.674 274.811 166.279 276.225 165.49 277.291C164.701 278.347 163.602 278.875 162.194 278.875ZM160.498 275.787C160.882 276.406 161.447 276.715 162.194 276.715C162.941 276.715 163.506 276.401 163.89 275.771C164.285 275.142 164.482 274.235 164.482 273.051C164.482 271.857 164.285 270.945 163.89 270.315C163.506 269.686 162.941 269.371 162.194 269.371C161.447 269.371 160.882 269.686 160.498 270.315C160.114 270.945 159.922 271.857 159.922 273.051C159.922 274.246 160.114 275.158 160.498 275.787ZM182.944 272.635V273.499C182.944 275.099 182.432 276.395 181.408 277.387C180.384 278.379 179.061 278.875 177.44 278.875C175.712 278.875 174.277 278.315 173.136 277.195C172.005 276.065 171.44 274.689 171.44 273.067C171.44 271.435 172 270.054 173.12 268.923C174.251 267.793 175.648 267.227 177.312 267.227C178.357 267.227 179.312 267.467 180.176 267.947C181.04 268.417 181.712 269.046 182.192 269.835L180.304 270.923C180.037 270.465 179.632 270.091 179.088 269.803C178.555 269.515 177.957 269.371 177.296 269.371C176.229 269.371 175.349 269.723 174.656 270.427C173.973 271.121 173.632 272.001 173.632 273.067C173.632 274.123 173.979 274.998 174.672 275.691C175.376 276.374 176.304 276.715 177.456 276.715C178.309 276.715 179.013 276.529 179.568 276.155C180.133 275.771 180.517 275.249 180.72 274.587H177.328V272.635H182.944ZM191.123 272.843C192.104 273.409 192.595 274.262 192.595 275.403C192.595 276.353 192.259 277.131 191.587 277.739C190.915 278.347 190.088 278.651 189.107 278.651H184.355V267.451H188.771C189.731 267.451 190.536 267.75 191.187 268.347C191.848 268.934 192.179 269.686 192.179 270.603C192.179 271.531 191.827 272.278 191.123 272.843ZM188.771 269.515H186.563V271.979H188.771C189.112 271.979 189.395 271.862 189.619 271.627C189.853 271.393 189.971 271.099 189.971 270.747C189.971 270.395 189.859 270.102 189.635 269.867C189.411 269.633 189.123 269.515 188.771 269.515ZM189.107 276.587C189.48 276.587 189.789 276.465 190.035 276.219C190.28 275.963 190.403 275.643 190.403 275.259C190.403 274.886 190.28 274.577 190.035 274.331C189.789 274.075 189.48 273.947 189.107 273.947H186.563V276.587H189.107ZM198.058 267.451C199.135 267.451 200.042 267.814 200.778 268.539C201.514 269.265 201.882 270.155 201.882 271.211C201.882 272.267 201.514 273.158 200.778 273.883C200.042 274.609 199.135 274.971 198.058 274.971H196.09V278.651H193.882V267.451H198.058ZM198.058 272.907C198.527 272.907 198.917 272.747 199.226 272.427C199.535 272.097 199.69 271.691 199.69 271.211C199.69 270.721 199.535 270.315 199.226 269.995C198.917 269.675 198.527 269.515 198.058 269.515H196.09V272.907H198.058ZM206.68 272.363V270.427H213.64V272.363H206.68ZM206.68 275.675V273.739H213.64V275.675H206.68ZM218.478 278.651V277.003L222.302 273.067C223.155 272.171 223.582 271.425 223.582 270.827C223.582 270.39 223.443 270.038 223.166 269.771C222.899 269.505 222.552 269.371 222.126 269.371C221.283 269.371 220.659 269.809 220.254 270.683L218.398 269.595C218.75 268.827 219.256 268.241 219.918 267.835C220.579 267.43 221.304 267.227 222.094 267.227C223.107 267.227 223.976 267.547 224.702 268.187C225.427 268.817 225.79 269.67 225.79 270.747C225.79 271.91 225.176 273.105 223.95 274.331L221.758 276.523H225.966V278.651H218.478ZM229.271 267.451H231.191V278.651H228.983V269.787L226.871 270.379L226.327 268.491L229.271 267.451ZM237.219 278.875C235.822 278.875 234.723 278.347 233.923 277.291C233.134 276.225 232.739 274.811 232.739 273.051C232.739 271.291 233.134 269.883 233.923 268.827C234.723 267.761 235.822 267.227 237.219 267.227C238.627 267.227 239.726 267.761 240.515 268.827C241.304 269.883 241.699 271.291 241.699 273.051C241.699 274.811 241.304 276.225 240.515 277.291C239.726 278.347 238.627 278.875 237.219 278.875ZM235.523 275.787C235.907 276.406 236.472 276.715 237.219 276.715C237.966 276.715 238.531 276.401 238.915 275.771C239.31 275.142 239.507 274.235 239.507 273.051C239.507 271.857 239.31 270.945 238.915 270.315C238.531 269.686 237.966 269.371 237.219 269.371C236.472 269.371 235.907 269.686 235.523 270.315C235.139 270.945 234.947 271.857 234.947 273.051C234.947 274.246 235.139 275.158 235.523 275.787ZM247.137 278.875C245.74 278.875 244.641 278.347 243.841 277.291C243.052 276.225 242.657 274.811 242.657 273.051C242.657 271.291 243.052 269.883 243.841 268.827C244.641 267.761 245.74 267.227 247.137 267.227C248.545 267.227 249.644 267.761 250.433 268.827C251.222 269.883 251.617 271.291 251.617 273.051C251.617 274.811 251.222 276.225 250.433 277.291C249.644 278.347 248.545 278.875 247.137 278.875ZM245.441 275.787C245.825 276.406 246.39 276.715 247.137 276.715C247.884 276.715 248.449 276.401 248.833 275.771C249.228 275.142 249.425 274.235 249.425 273.051C249.425 271.857 249.228 270.945 248.833 270.315C248.449 269.686 247.884 269.371 247.137 269.371C246.39 269.371 245.825 269.686 245.441 270.315C245.057 270.945 244.865 271.857 244.865 273.051C244.865 274.246 245.057 275.158 245.441 275.787ZM254.635 278.459C254.368 278.726 254.048 278.859 253.675 278.859C253.301 278.859 252.981 278.726 252.715 278.459C252.448 278.193 252.315 277.873 252.315 277.499C252.315 277.126 252.448 276.806 252.715 276.539C252.981 276.273 253.301 276.139 253.675 276.139C254.048 276.139 254.368 276.273 254.635 276.539C254.901 276.806 255.035 277.126 255.035 277.499C255.035 277.873 254.901 278.193 254.635 278.459ZM260.132 271.531C261.209 271.531 262.116 271.857 262.852 272.507C263.588 273.147 263.956 274.043 263.956 275.195C263.956 276.347 263.567 277.249 262.788 277.899C262.02 278.55 261.076 278.875 259.956 278.875C259.049 278.875 258.249 278.673 257.556 278.267C256.863 277.862 256.361 277.265 256.052 276.475L257.94 275.371C258.217 276.267 258.889 276.715 259.956 276.715C260.521 276.715 260.959 276.582 261.268 276.315C261.588 276.038 261.748 275.665 261.748 275.195C261.748 274.737 261.593 274.369 261.284 274.091C260.975 273.814 260.553 273.675 260.02 273.675H256.628L257.076 267.451H263.428V269.515H259.124L258.98 271.531H260.132ZM271.769 271.115C271.769 271.979 271.545 272.737 271.097 273.387H271.113L267.625 278.651H265.097L267.593 275.003C266.43 274.982 265.481 274.614 264.745 273.899C264.02 273.174 263.657 272.246 263.657 271.115C263.657 269.974 264.03 269.041 264.777 268.315C265.534 267.59 266.51 267.227 267.705 267.227C268.91 267.227 269.886 267.59 270.633 268.315C271.39 269.03 271.769 269.963 271.769 271.115ZM265.849 271.115C265.849 271.67 266.025 272.113 266.377 272.443C266.74 272.774 267.182 272.939 267.705 272.939C268.249 272.939 268.697 272.774 269.049 272.443C269.401 272.113 269.577 271.67 269.577 271.115C269.577 270.561 269.401 270.123 269.049 269.803C268.697 269.473 268.249 269.307 267.705 269.307C267.182 269.307 266.74 269.473 266.377 269.803C266.025 270.134 265.849 270.571 265.849 271.115ZM280.453 271.115C280.453 271.979 280.229 272.737 279.781 273.387H279.797L276.309 278.651H273.781L276.277 275.003C275.114 274.982 274.165 274.614 273.429 273.899C272.703 273.174 272.341 272.246 272.341 271.115C272.341 269.974 272.714 269.041 273.461 268.315C274.218 267.59 275.194 267.227 276.389 267.227C277.594 267.227 278.57 267.59 279.317 268.315C280.074 269.03 280.453 269.963 280.453 271.115ZM274.533 271.115C274.533 271.67 274.709 272.113 275.061 272.443C275.423 272.774 275.866 272.939 276.389 272.939C276.933 272.939 277.381 272.774 277.733 272.443C278.085 272.113 278.261 271.67 278.261 271.115C278.261 270.561 278.085 270.123 277.733 269.803C277.381 269.473 276.933 269.307 276.389 269.307C275.866 269.307 275.423 269.473 275.061 269.803C274.709 270.134 274.533 270.571 274.533 271.115ZM289.136 271.115C289.136 271.979 288.912 272.737 288.464 273.387H288.48L284.992 278.651H282.464L284.96 275.003C283.798 274.982 282.848 274.614 282.112 273.899C281.387 273.174 281.024 272.246 281.024 271.115C281.024 269.974 281.398 269.041 282.144 268.315C282.902 267.59 283.878 267.227 285.072 267.227C286.278 267.227 287.254 267.59 288 268.315C288.758 269.03 289.136 269.963 289.136 271.115ZM283.216 271.115C283.216 271.67 283.392 272.113 283.744 272.443C284.107 272.774 284.55 272.939 285.072 272.939C285.616 272.939 286.064 272.774 286.416 272.443C286.768 272.113 286.944 271.67 286.944 271.115C286.944 270.561 286.768 270.123 286.416 269.803C286.064 269.473 285.616 269.307 285.072 269.307C284.55 269.307 284.107 269.473 283.744 269.803C283.392 270.134 283.216 270.571 283.216 271.115ZM300.7 267.451H302.908V278.651H301.228L296.428 271.803V278.651H294.22V267.451H295.9L300.7 274.283V267.451ZM315.818 272.635V273.499C315.818 275.099 315.306 276.395 314.282 277.387C313.258 278.379 311.935 278.875 310.314 278.875C308.586 278.875 307.151 278.315 306.01 277.195C304.879 276.065 304.314 274.689 304.314 273.067C304.314 271.435 304.874 270.054 305.994 268.923C307.124 267.793 308.522 267.227 310.186 267.227C311.231 267.227 312.186 267.467 313.05 267.947C313.914 268.417 314.586 269.046 315.066 269.835L313.178 270.923C312.911 270.465 312.506 270.091 311.962 269.803C311.428 269.515 310.831 269.371 310.17 269.371C309.103 269.371 308.223 269.723 307.53 270.427C306.847 271.121 306.506 272.001 306.506 273.067C306.506 274.123 306.852 274.998 307.546 275.691C308.25 276.374 309.178 276.715 310.33 276.715C311.183 276.715 311.887 276.529 312.442 276.155C313.007 275.771 313.391 275.249 313.594 274.587H310.202V272.635H315.818ZM323.708 267.451H325.916V278.651H324.236L319.436 271.803V278.651H317.228V267.451H318.908L323.708 274.283V267.451Z" fill="#009053"/>
<line x1="119.743" y1="247.419" x2="119.743" y2="301.143" stroke="#1C1C1C" stroke-opacity="0.1" stroke-width="0.914286"/>
<ellipse cx="119.857" cy="273.765" rx="4" ry="3.616" fill="#009053"/>
<path d="M123.4 273.765C123.4 275.467 121.858 276.923 119.857 276.923C117.856 276.923 116.314 275.467 116.314 273.765C116.314 272.062 117.856 270.606 119.857 270.606C121.858 270.606 123.4 272.062 123.4 273.765Z" stroke="#1C1C1C" stroke-opacity="0.1" stroke-width="0.914286"/>
<rect x="109.457" y="161.457" width="463.086" height="71.0857" rx="8.68571" fill="white"/>
<rect x="109.457" y="161.457" width="463.086" height="71.0857" rx="8.68571" stroke="#1C1C1C" stroke-width="0.914286"/>
<rect x="116.957" y="171.743" width="123.657" height="51.0857" rx="8.68571" stroke="#1C1C1C" stroke-opacity="0.2" stroke-width="0.914286"/>
<g clip-path="url(#clip0_9_149)">
<path d="M125.643 186.286H154.214V207.714H125.643V186.286Z" fill="#012169"/>
<path d="M128.991 186.286L139.884 194.366L150.732 186.286H154.214V189.054L143.5 197.045L154.214 204.991V207.714H150.643L139.929 199.723L129.259 207.714H125.643V205.036L136.313 197.089L125.643 189.143V186.286H128.991Z" fill="white"/>
<path d="M144.571 198.83L154.214 205.929V207.714L142.116 198.83H144.571ZM136.357 199.723L136.625 201.286L128.054 207.714H125.643L136.357 199.723ZM154.214 186.286V186.42L143.098 194.813L143.188 192.848L151.982 186.286H154.214ZM125.643 186.286L136.313 194.143H133.634L125.643 188.161V186.286Z" fill="#C8102E"/>
<path d="M136.402 186.286V207.714H143.545V186.286H136.402ZM125.643 193.429V200.571H154.214V193.429H125.643Z" fill="white"/>
<path d="M125.643 194.902V199.188H154.214V194.902H125.643ZM137.83 186.286V207.714H142.116V186.286H137.83Z" fill="#C8102E"/>
</g>
<path d="M174.822 195.41V196.398C174.822 198.226 174.237 199.707 173.067 200.841C171.897 201.975 170.385 202.542 168.532 202.542C166.557 202.542 164.918 201.902 163.613 200.622C162.321 199.33 161.675 197.757 161.675 195.904C161.675 194.039 162.315 192.46 163.595 191.168C164.887 189.876 166.484 189.23 168.386 189.23C169.58 189.23 170.671 189.504 171.659 190.053C172.646 190.589 173.414 191.308 173.963 192.21L171.805 193.454C171.5 192.93 171.037 192.503 170.415 192.174C169.806 191.845 169.123 191.68 168.367 191.68C167.148 191.68 166.143 192.082 165.35 192.887C164.57 193.679 164.18 194.685 164.18 195.904C164.18 197.111 164.576 198.111 165.369 198.903C166.173 199.683 167.234 200.073 168.55 200.073C169.526 200.073 170.33 199.86 170.964 199.433C171.61 198.994 172.049 198.397 172.281 197.641H168.404V195.41H174.822ZM183.621 195.648C184.742 196.294 185.303 197.269 185.303 198.574C185.303 199.659 184.919 200.549 184.151 201.243C183.383 201.938 182.438 202.286 181.317 202.286H175.886V189.486H180.933C182.03 189.486 182.95 189.827 183.694 190.51C184.45 191.18 184.827 192.04 184.827 193.088C184.827 194.149 184.425 195.002 183.621 195.648ZM180.933 191.845H178.409V194.661H180.933C181.323 194.661 181.646 194.527 181.902 194.258C182.17 193.99 182.304 193.655 182.304 193.253C182.304 192.85 182.176 192.515 181.92 192.247C181.664 191.979 181.335 191.845 180.933 191.845ZM181.317 199.927C181.743 199.927 182.097 199.787 182.377 199.506C182.658 199.214 182.798 198.848 182.798 198.409C182.798 197.983 182.658 197.629 182.377 197.349C182.097 197.056 181.743 196.91 181.317 196.91H178.409V199.927H181.317ZM190.998 189.486C192.23 189.486 193.266 189.9 194.107 190.729C194.948 191.558 195.369 192.576 195.369 193.783C195.369 194.99 194.948 196.008 194.107 196.837C193.266 197.666 192.23 198.08 190.998 198.08H188.749V202.286H186.226V189.486H190.998ZM190.998 195.721C191.535 195.721 191.98 195.538 192.333 195.173C192.687 194.795 192.863 194.331 192.863 193.783C192.863 193.222 192.687 192.759 192.333 192.393C191.98 192.027 191.535 191.845 190.998 191.845H188.749V195.721H190.998Z" fill="black"/>
<path d="M225.405 192.381H214.738L220.072 200.762L225.405 192.381Z" fill="black"/>
<path d="M284.592 186.922V207.286H280.903V190.512H280.784L276.021 193.554V190.174L281.082 186.922H284.592ZM297.01 207.674C295.372 207.674 293.967 207.259 292.794 206.431C291.627 205.595 290.729 204.392 290.099 202.821C289.476 201.244 289.165 199.344 289.165 197.124C289.171 194.903 289.486 193.014 290.109 191.456C290.739 189.892 291.637 188.699 292.804 187.877C293.977 187.055 295.379 186.644 297.01 186.644C298.64 186.644 300.042 187.055 301.216 187.877C302.389 188.699 303.287 189.892 303.91 191.456C304.54 193.021 304.855 194.91 304.855 197.124C304.855 199.351 304.54 201.254 303.91 202.831C303.287 204.402 302.389 205.602 301.216 206.431C300.049 207.259 298.647 207.674 297.01 207.674ZM297.01 204.561C298.283 204.561 299.287 203.935 300.023 202.682C300.765 201.423 301.136 199.57 301.136 197.124C301.136 195.506 300.967 194.148 300.629 193.047C300.291 191.947 299.814 191.118 299.197 190.561C298.581 189.998 297.852 189.716 297.01 189.716C295.744 189.716 294.743 190.346 294.007 191.605C293.271 192.858 292.9 194.698 292.893 197.124C292.887 198.748 293.049 200.113 293.381 201.22C293.719 202.327 294.196 203.163 294.812 203.726C295.429 204.283 296.161 204.561 297.01 204.561ZM315.406 207.674C313.768 207.674 312.363 207.259 311.19 206.431C310.023 205.595 309.125 204.392 308.495 202.821C307.872 201.244 307.56 199.344 307.56 197.124C307.567 194.903 307.882 193.014 308.505 191.456C309.135 189.892 310.033 188.699 311.2 187.877C312.373 187.055 313.775 186.644 315.406 186.644C317.036 186.644 318.438 187.055 319.612 187.877C320.785 188.699 321.683 189.892 322.306 191.456C322.936 193.021 323.251 194.91 323.251 197.124C323.251 199.351 322.936 201.254 322.306 202.831C321.683 204.402 320.785 205.602 319.612 206.431C318.445 207.259 317.043 207.674 315.406 207.674ZM315.406 204.561C316.678 204.561 317.683 203.935 318.418 202.682C319.161 201.423 319.532 199.57 319.532 197.124C319.532 195.506 319.363 194.148 319.025 193.047C318.687 191.947 318.21 191.118 317.593 190.561C316.977 189.998 316.247 189.716 315.406 189.716C314.139 189.716 313.139 190.346 312.403 191.605C311.667 192.858 311.296 194.698 311.289 197.124C311.282 198.748 311.445 200.113 311.776 201.22C312.114 202.327 312.592 203.163 313.208 203.726C313.825 204.283 314.557 204.561 315.406 204.561ZM327.738 207.505C327.135 207.505 326.618 207.292 326.187 206.868C325.756 206.444 325.544 205.927 325.551 205.317C325.544 204.72 325.756 204.21 326.187 203.786C326.618 203.362 327.135 203.149 327.738 203.149C328.322 203.149 328.829 203.362 329.26 203.786C329.697 204.21 329.919 204.72 329.926 205.317C329.919 205.721 329.813 206.089 329.608 206.421C329.409 206.752 329.144 207.017 328.812 207.216C328.488 207.408 328.13 207.505 327.738 207.505ZM340.056 207.674C338.419 207.674 337.014 207.259 335.841 206.431C334.674 205.595 333.776 204.392 333.146 202.821C332.523 201.244 332.211 199.344 332.211 197.124C332.218 194.903 332.533 193.014 333.156 191.456C333.786 189.892 334.684 188.699 335.851 187.877C337.024 187.055 338.426 186.644 340.056 186.644C341.687 186.644 343.089 187.055 344.262 187.877C345.436 188.699 346.334 189.892 346.957 191.456C347.587 193.021 347.902 194.91 347.902 197.124C347.902 199.351 347.587 201.254 346.957 202.831C346.334 204.402 345.436 205.602 344.262 206.431C343.096 207.259 341.694 207.674 340.056 207.674ZM340.056 204.561C341.329 204.561 342.333 203.935 343.069 202.682C343.812 201.423 344.183 199.57 344.183 197.124C344.183 195.506 344.014 194.148 343.676 193.047C343.338 191.947 342.86 191.118 342.244 190.561C341.628 189.998 340.898 189.716 340.056 189.716C338.79 189.716 337.789 190.346 337.054 191.605C336.318 192.858 335.947 194.698 335.94 197.124C335.933 198.748 336.096 200.113 336.427 201.22C336.765 202.327 337.243 203.163 337.859 203.726C338.476 204.283 339.208 204.561 340.056 204.561ZM358.452 207.674C356.815 207.674 355.41 207.259 354.236 206.431C353.07 205.595 352.171 204.392 351.542 202.821C350.919 201.244 350.607 199.344 350.607 197.124C350.614 194.903 350.929 193.014 351.552 191.456C352.181 189.892 353.08 188.699 354.246 187.877C355.42 187.055 356.822 186.644 358.452 186.644C360.083 186.644 361.485 187.055 362.658 187.877C363.832 188.699 364.73 189.892 365.353 191.456C365.983 193.021 366.297 194.91 366.297 197.124C366.297 199.351 365.983 201.254 365.353 202.831C364.73 204.402 363.832 205.602 362.658 206.431C361.492 207.259 360.09 207.674 358.452 207.674ZM358.452 204.561C359.725 204.561 360.729 203.935 361.465 202.682C362.207 201.423 362.579 199.57 362.579 197.124C362.579 195.506 362.41 194.148 362.072 193.047C361.734 191.947 361.256 191.118 360.64 190.561C360.023 189.998 359.294 189.716 358.452 189.716C357.186 189.716 356.185 190.346 355.449 191.605C354.714 192.858 354.342 194.698 354.336 197.124C354.329 198.748 354.492 200.113 354.823 201.22C355.161 202.327 355.638 203.163 356.255 203.726C356.871 204.283 357.604 204.561 358.452 204.561Z" fill="black"/>
<path d="M119.728 328.543L115.264 336.049V341.143H113.59V336.031L109.144 328.543H111.016L114.436 334.447L117.856 328.543H119.728ZM126.134 340.009C125.21 340.921 124.088 341.377 122.768 341.377C121.448 341.377 120.326 340.921 119.402 340.009C118.49 339.097 118.034 337.975 118.034 336.643C118.034 335.311 118.49 334.189 119.402 333.277C120.326 332.365 121.448 331.909 122.768 331.909C124.088 331.909 125.21 332.365 126.134 333.277C127.058 334.189 127.52 335.311 127.52 336.643C127.52 337.975 127.058 339.097 126.134 340.009ZM122.768 339.847C123.668 339.847 124.424 339.541 125.036 338.929C125.648 338.317 125.954 337.555 125.954 336.643C125.954 335.731 125.648 334.969 125.036 334.357C124.424 333.745 123.668 333.439 122.768 333.439C121.88 333.439 121.13 333.745 120.518 334.357C119.906 334.969 119.6 335.731 119.6 336.643C119.6 337.555 119.906 338.317 120.518 338.929C121.13 339.541 121.88 339.847 122.768 339.847ZM134.856 332.143H136.422V341.143H134.856V339.847C134.22 340.867 133.248 341.377 131.94 341.377C130.884 341.377 130.038 341.047 129.402 340.387C128.766 339.715 128.448 338.809 128.448 337.669V332.143H130.014V337.579C130.014 338.311 130.212 338.881 130.608 339.289C131.004 339.685 131.55 339.883 132.246 339.883C133.026 339.883 133.656 339.643 134.136 339.163C134.616 338.671 134.856 337.921 134.856 336.913V332.143ZM149.337 332.143H150.885V340.765C150.885 342.097 150.435 343.129 149.535 343.861C148.635 344.605 147.555 344.977 146.295 344.977C145.287 344.977 144.417 344.785 143.685 344.401C142.953 344.029 142.401 343.489 142.029 342.781L143.397 342.007C143.889 343.015 144.867 343.519 146.331 343.519C147.267 343.519 147.999 343.273 148.527 342.781C149.067 342.289 149.337 341.617 149.337 340.765V339.487C148.545 340.687 147.417 341.287 145.953 341.287C144.669 341.287 143.583 340.831 142.695 339.919C141.807 339.007 141.363 337.897 141.363 336.589C141.363 335.281 141.807 334.177 142.695 333.277C143.583 332.365 144.669 331.909 145.953 331.909C147.429 331.909 148.557 332.503 149.337 333.691V332.143ZM143.847 338.875C144.459 339.487 145.221 339.793 146.133 339.793C147.045 339.793 147.807 339.487 148.419 338.875C149.031 338.263 149.337 337.501 149.337 336.589C149.337 335.689 149.031 334.933 148.419 334.321C147.807 333.709 147.045 333.403 146.133 333.403C145.221 333.403 144.459 333.709 143.847 334.321C143.235 334.933 142.929 335.689 142.929 336.589C142.929 337.501 143.235 338.263 143.847 338.875ZM160.133 340.009C159.209 340.921 158.087 341.377 156.767 341.377C155.447 341.377 154.325 340.921 153.401 340.009C152.489 339.097 152.033 337.975 152.033 336.643C152.033 335.311 152.489 334.189 153.401 333.277C154.325 332.365 155.447 331.909 156.767 331.909C158.087 331.909 159.209 332.365 160.133 333.277C161.057 334.189 161.519 335.311 161.519 336.643C161.519 337.975 161.057 339.097 160.133 340.009ZM156.767 339.847C157.667 339.847 158.423 339.541 159.035 338.929C159.647 338.317 159.953 337.555 159.953 336.643C159.953 335.731 159.647 334.969 159.035 334.357C158.423 333.745 157.667 333.439 156.767 333.439C155.879 333.439 155.129 333.745 154.517 334.357C153.905 334.969 153.599 335.731 153.599 336.643C153.599 337.555 153.905 338.317 154.517 338.929C155.129 339.541 155.879 339.847 156.767 339.847ZM163.437 330.505C163.137 330.505 162.885 330.403 162.681 330.199C162.477 329.995 162.375 329.749 162.375 329.461C162.375 329.173 162.477 328.927 162.681 328.723C162.885 328.507 163.137 328.399 163.437 328.399C163.725 328.399 163.971 328.507 164.175 328.723C164.379 328.927 164.481 329.173 164.481 329.461C164.481 329.749 164.379 329.995 164.175 330.199C163.971 330.403 163.725 330.505 163.437 330.505ZM162.645 341.143V332.143H164.211V341.143H162.645ZM170.362 331.909C171.418 331.909 172.264 332.245 172.9 332.917C173.536 333.577 173.854 334.477 173.854 335.617V341.143H172.288V335.707C172.288 334.975 172.09 334.411 171.694 334.015C171.298 333.607 170.752 333.403 170.056 333.403C169.276 333.403 168.646 333.649 168.166 334.141C167.686 334.621 167.446 335.365 167.446 336.373V341.143H165.88V332.143H167.446V333.439C168.082 332.419 169.054 331.909 170.362 331.909ZM182.791 332.143H184.339V340.765C184.339 342.097 183.889 343.129 182.989 343.861C182.089 344.605 181.009 344.977 179.749 344.977C178.741 344.977 177.871 344.785 177.139 344.401C176.407 344.029 175.855 343.489 175.483 342.781L176.851 342.007C177.343 343.015 178.321 343.519 179.785 343.519C180.721 343.519 181.453 343.273 181.981 342.781C182.521 342.289 182.791 341.617 182.791 340.765V339.487C181.999 340.687 180.871 341.287 179.407 341.287C178.123 341.287 177.037 340.831 176.149 339.919C175.261 339.007 174.817 337.897 174.817 336.589C174.817 335.281 175.261 334.177 176.149 333.277C177.037 332.365 178.123 331.909 179.407 331.909C180.883 331.909 182.011 332.503 182.791 333.691V332.143ZM177.301 338.875C177.913 339.487 178.675 339.793 179.587 339.793C180.499 339.793 181.261 339.487 181.873 338.875C182.485 338.263 182.791 337.501 182.791 336.589C182.791 335.689 182.485 334.933 181.873 334.321C181.261 333.709 180.499 333.403 179.587 333.403C178.675 333.403 177.913 333.709 177.301 334.321C176.689 334.933 176.383 335.689 176.383 336.589C176.383 337.501 176.689 338.263 177.301 338.875ZM194.667 333.655H192.273V338.533C192.273 338.977 192.357 339.295 192.525 339.487C192.705 339.667 192.975 339.763 193.335 339.775C193.695 339.775 194.139 339.763 194.667 339.739V341.143C193.299 341.323 192.297 341.215 191.661 340.819C191.025 340.411 190.707 339.649 190.707 338.533V333.655H188.925V332.143H190.707V330.091L192.273 329.623V332.143H194.667V333.655ZM202.94 340.009C202.016 340.921 200.894 341.377 199.574 341.377C198.254 341.377 197.132 340.921 196.208 340.009C195.296 339.097 194.84 337.975 194.84 336.643C194.84 335.311 195.296 334.189 196.208 333.277C197.132 332.365 198.254 331.909 199.574 331.909C200.894 331.909 202.016 332.365 202.94 333.277C203.864 334.189 204.326 335.311 204.326 336.643C204.326 337.975 203.864 339.097 202.94 340.009ZM199.574 339.847C200.474 339.847 201.23 339.541 201.842 338.929C202.454 338.317 202.76 337.555 202.76 336.643C202.76 335.731 202.454 334.969 201.842 334.357C201.23 333.745 200.474 333.439 199.574 333.439C198.686 333.439 197.936 333.745 197.324 334.357C196.712 334.969 196.406 335.731 196.406 336.643C196.406 337.555 196.712 338.317 197.324 338.929C197.936 339.541 198.686 339.847 199.574 339.847ZM210.798 333.655C211.314 332.539 212.25 331.981 213.606 331.981V333.619C212.838 333.583 212.178 333.787 211.626 334.231C211.074 334.675 210.798 335.389 210.798 336.373V341.143H209.232V332.143H210.798V333.655ZM215.024 337.363C215.18 338.167 215.546 338.791 216.122 339.235C216.71 339.679 217.43 339.901 218.282 339.901C219.47 339.901 220.334 339.463 220.874 338.587L222.206 339.343C221.33 340.699 220.01 341.377 218.246 341.377C216.818 341.377 215.654 340.933 214.754 340.045C213.866 339.145 213.422 338.011 213.422 336.643C213.422 335.287 213.86 334.159 214.736 333.259C215.612 332.359 216.746 331.909 218.138 331.909C219.458 331.909 220.532 332.377 221.36 333.313C222.2 334.237 222.62 335.353 222.62 336.661C222.62 336.889 222.602 337.123 222.566 337.363H215.024ZM218.138 333.385C217.298 333.385 216.602 333.625 216.05 334.105C215.498 334.573 215.156 335.203 215.024 335.995H221.036C220.904 335.143 220.568 334.495 220.028 334.051C219.488 333.607 218.858 333.385 218.138 333.385ZM227.913 341.377C226.557 341.377 225.429 340.927 224.529 340.027C223.629 339.115 223.179 337.987 223.179 336.643C223.179 335.299 223.629 334.177 224.529 333.277C225.429 332.365 226.557 331.909 227.913 331.909C228.801 331.909 229.599 332.125 230.307 332.557C231.015 332.977 231.543 333.547 231.891 334.267L230.577 335.023C230.349 334.543 229.995 334.159 229.515 333.871C229.047 333.583 228.513 333.439 227.913 333.439C227.013 333.439 226.257 333.745 225.645 334.357C225.045 334.969 224.745 335.731 224.745 336.643C224.745 337.543 225.045 338.299 225.645 338.911C226.257 339.523 227.013 339.829 227.913 339.829C228.513 339.829 229.053 339.691 229.533 339.415C230.013 339.127 230.379 338.743 230.631 338.263L231.963 339.037C231.579 339.745 231.027 340.315 230.307 340.747C229.587 341.167 228.789 341.377 227.913 341.377ZM233.764 337.363C233.92 338.167 234.286 338.791 234.862 339.235C235.45 339.679 236.17 339.901 237.022 339.901C238.21 339.901 239.074 339.463 239.614 338.587L240.946 339.343C240.07 340.699 238.75 341.377 236.986 341.377C235.558 341.377 234.394 340.933 233.494 340.045C232.606 339.145 232.162 338.011 232.162 336.643C232.162 335.287 232.6 334.159 233.476 333.259C234.352 332.359 235.486 331.909 236.878 331.909C238.198 331.909 239.272 332.377 240.1 333.313C240.94 334.237 241.36 335.353 241.36 336.661C241.36 336.889 241.342 337.123 241.306 337.363H233.764ZM236.878 333.385C236.038 333.385 235.342 333.625 234.79 334.105C234.238 334.573 233.896 335.203 233.764 335.995H239.776C239.644 335.143 239.308 334.495 238.768 334.051C238.228 333.607 237.598 333.385 236.878 333.385ZM243.232 330.505C242.932 330.505 242.68 330.403 242.476 330.199C242.272 329.995 242.17 329.749 242.17 329.461C242.17 329.173 242.272 328.927 242.476 328.723C242.68 328.507 242.932 328.399 243.232 328.399C243.52 328.399 243.766 328.507 243.97 328.723C244.174 328.927 244.276 329.173 244.276 329.461C244.276 329.749 244.174 329.995 243.97 330.199C243.766 330.403 243.52 330.505 243.232 330.505ZM242.44 341.143V332.143H244.006V341.143H242.44ZM251.975 332.143H253.667L250.067 341.143H248.231L244.631 332.143H246.323L249.149 339.469L251.975 332.143ZM255.018 337.363C255.174 338.167 255.54 338.791 256.116 339.235C256.704 339.679 257.424 339.901 258.276 339.901C259.464 339.901 260.328 339.463 260.868 338.587L262.2 339.343C261.324 340.699 260.004 341.377 258.24 341.377C256.812 341.377 255.648 340.933 254.748 340.045C253.86 339.145 253.416 338.011 253.416 336.643C253.416 335.287 253.854 334.159 254.73 333.259C255.606 332.359 256.74 331.909 258.132 331.909C259.452 331.909 260.526 332.377 261.354 333.313C262.194 334.237 262.614 335.353 262.614 336.661C262.614 336.889 262.596 337.123 262.56 337.363H255.018ZM258.132 333.385C257.292 333.385 256.596 333.625 256.044 334.105C255.492 334.573 255.15 335.203 255.018 335.995H261.03C260.898 335.143 260.562 334.495 260.022 334.051C259.482 333.607 258.852 333.385 258.132 333.385Z" fill="black"/>
<rect x="109" y="360.857" width="464" height="72" rx="9.14286" fill="white"/>
<rect x="109.457" y="361.314" width="463.086" height="71.0857" rx="8.68571" stroke="#1C1C1C" stroke-opacity="0.2" stroke-width="0.914286"/>
<rect x="117.457" y="371.029" width="123.657" height="51.0857" rx="8.68571" stroke="#1C1C1C" stroke-opacity="0.2" stroke-width="0.914286"/>
<g clip-path="url(#clip1_9_149)">
<path fill-rule="evenodd" clip-rule="evenodd" d="M126.143 385.429H154.714V406.857H126.143V385.429Z" fill="white"/>
<path fill-rule="evenodd" clip-rule="evenodd" d="M145.188 385.429H154.714V406.857H145.188V385.429ZM126.143 385.429H135.665V406.857H126.143V385.429Z" fill="#008753"/>
</g>
<path d="M170.166 388.629H172.689V401.429H170.769L165.283 393.602V401.429H162.76V388.629H164.68L170.166 396.437V388.629ZM186.894 394.553V395.541C186.894 397.369 186.309 398.85 185.139 399.984C183.969 401.118 182.457 401.685 180.604 401.685C178.629 401.685 176.99 401.045 175.685 399.765C174.393 398.473 173.747 396.9 173.747 395.047C173.747 393.182 174.387 391.603 175.667 390.311C176.959 389.019 178.556 388.373 180.458 388.373C181.653 388.373 182.744 388.647 183.731 389.196C184.718 389.732 185.486 390.451 186.035 391.353L183.877 392.597C183.573 392.073 183.109 391.646 182.488 391.317C181.878 390.988 181.195 390.823 180.44 390.823C179.221 390.823 178.215 391.225 177.422 392.03C176.642 392.822 176.252 393.828 176.252 395.047C176.252 396.254 176.648 397.253 177.441 398.046C178.245 398.826 179.306 399.216 180.622 399.216C181.598 399.216 182.402 399.003 183.036 398.576C183.682 398.137 184.121 397.54 184.353 396.784H180.476V394.553H186.894ZM195.364 388.629H197.887V401.429H195.967L190.481 393.602V401.429H187.958V388.629H189.878L195.364 396.437V388.629Z" fill="black"/>
<path d="M228.905 391.524H218.238L223.571 399.905L228.905 391.524Z" fill="black"/>
<path d="M284.592 386.208V406.572H280.903V389.797H280.784L276.021 392.84V389.459L281.082 386.208H284.592ZM297.071 406.85C295.639 406.85 294.366 406.605 293.253 406.114C292.146 405.624 291.271 404.941 290.628 404.066C289.985 403.191 289.643 402.18 289.604 401.033H293.342C293.375 401.583 293.558 402.064 293.889 402.475C294.221 402.879 294.661 403.194 295.212 403.42C295.762 403.645 296.378 403.758 297.061 403.758C297.79 403.758 298.437 403.632 299 403.38C299.563 403.121 300.004 402.763 300.322 402.306C300.641 401.849 300.796 401.322 300.79 400.725C300.796 400.108 300.637 399.565 300.312 399.094C299.988 398.624 299.517 398.256 298.901 397.991C298.291 397.725 297.555 397.593 296.693 397.593H294.893V394.749H296.693C297.402 394.749 298.022 394.626 298.553 394.381C299.089 394.136 299.51 393.791 299.815 393.347C300.12 392.896 300.269 392.376 300.263 391.786C300.269 391.209 300.14 390.709 299.875 390.285C299.616 389.854 299.249 389.519 298.771 389.28C298.301 389.042 297.747 388.922 297.111 388.922C296.488 388.922 295.911 389.035 295.381 389.26C294.85 389.486 294.423 389.807 294.098 390.225C293.773 390.636 293.601 391.126 293.581 391.697H290.031C290.058 390.556 290.386 389.555 291.016 388.694C291.652 387.825 292.5 387.149 293.561 386.665C294.622 386.175 295.812 385.929 297.131 385.929C298.49 385.929 299.67 386.185 300.67 386.695C301.678 387.199 302.457 387.878 303.007 388.733C303.557 389.589 303.832 390.533 303.832 391.567C303.839 392.714 303.501 393.675 302.818 394.451C302.142 395.226 301.254 395.733 300.153 395.972V396.131C301.585 396.33 302.682 396.86 303.445 397.722C304.214 398.577 304.595 399.641 304.588 400.914C304.588 402.054 304.263 403.075 303.614 403.976C302.971 404.871 302.082 405.574 300.949 406.084C299.822 406.595 298.529 406.85 297.071 406.85ZM308.001 406.572V403.907L315.071 396.976C315.747 396.294 316.31 395.687 316.761 395.157C317.212 394.626 317.55 394.113 317.775 393.616C318.001 393.118 318.113 392.588 318.113 392.025C318.113 391.382 317.967 390.831 317.676 390.374C317.384 389.91 316.983 389.552 316.473 389.3C315.962 389.048 315.382 388.922 314.733 388.922C314.063 388.922 313.476 389.062 312.973 389.34C312.469 389.612 312.078 390 311.799 390.503C311.528 391.007 311.392 391.607 311.392 392.303H307.882C307.882 391.01 308.177 389.887 308.767 388.932C309.357 387.978 310.169 387.239 311.203 386.715C312.243 386.191 313.437 385.929 314.782 385.929C316.148 385.929 317.348 386.185 318.382 386.695C319.416 387.206 320.218 387.905 320.788 388.793C321.365 389.681 321.653 390.696 321.653 391.836C321.653 392.598 321.507 393.347 321.216 394.083C320.924 394.819 320.41 395.634 319.674 396.529C318.945 397.424 317.921 398.508 316.602 399.78L313.092 403.35V403.489H321.961V406.572H308.001ZM329.657 403.787L329.528 404.881C329.435 405.716 329.27 406.565 329.031 407.427C328.799 408.295 328.554 409.094 328.295 409.823C328.037 410.552 327.828 411.126 327.669 411.543H325.243C325.335 411.139 325.461 410.589 325.62 409.893C325.786 409.197 325.945 408.414 326.098 407.546C326.25 406.678 326.353 405.796 326.406 404.901L326.475 403.787H329.657ZM340.483 406.85C339.157 406.85 337.971 406.601 336.923 406.104C335.876 405.6 335.044 404.911 334.428 404.036C333.818 403.161 333.493 402.16 333.453 401.033H337.033C337.099 401.868 337.46 402.551 338.116 403.081C338.773 403.605 339.562 403.867 340.483 403.867C341.205 403.867 341.848 403.701 342.412 403.37C342.975 403.038 343.42 402.578 343.744 401.988C344.069 401.398 344.228 400.725 344.222 399.969C344.228 399.2 344.066 398.518 343.734 397.921C343.403 397.324 342.949 396.857 342.372 396.519C341.795 396.174 341.133 396.002 340.384 396.002C339.774 395.995 339.174 396.108 338.584 396.34C337.994 396.572 337.527 396.877 337.182 397.255L333.851 396.708L334.915 386.208H346.727V389.29H337.967L337.381 394.689H337.5C337.878 394.245 338.411 393.877 339.101 393.586C339.79 393.287 340.546 393.138 341.368 393.138C342.601 393.138 343.701 393.43 344.669 394.013C345.637 394.59 346.399 395.385 346.956 396.4C347.513 397.414 347.791 398.574 347.791 399.88C347.791 401.225 347.48 402.425 346.857 403.479C346.24 404.527 345.382 405.352 344.281 405.955C343.188 406.552 341.921 406.85 340.483 406.85ZM350.754 402.793V399.86L359.395 386.208H361.841V390.384H360.349L354.533 399.601V399.76H366.594V402.793H350.754ZM360.469 406.572V401.898L360.509 400.586V386.208H363.989V406.572H360.469ZM377.228 406.85C376.254 406.843 375.302 406.674 374.374 406.343C373.446 406.005 372.611 405.458 371.869 404.702C371.126 403.94 370.536 402.929 370.099 401.67C369.661 400.403 369.446 398.836 369.452 396.966C369.452 395.223 369.638 393.669 370.009 392.303C370.38 390.938 370.914 389.784 371.61 388.843C372.306 387.895 373.145 387.172 374.126 386.675C375.113 386.178 376.217 385.929 377.437 385.929C378.716 385.929 379.85 386.181 380.837 386.685C381.832 387.189 382.634 387.878 383.244 388.753C383.853 389.622 384.231 390.603 384.377 391.697H380.748C380.562 390.914 380.181 390.291 379.604 389.827C379.034 389.357 378.312 389.121 377.437 389.121C376.025 389.121 374.938 389.734 374.175 390.961C373.42 392.187 373.039 393.871 373.032 396.012H373.171C373.496 395.429 373.917 394.928 374.434 394.51C374.951 394.093 375.534 393.771 376.184 393.546C376.84 393.314 377.533 393.198 378.262 393.198C379.455 393.198 380.526 393.483 381.474 394.053C382.428 394.623 383.184 395.409 383.741 396.41C384.298 397.404 384.573 398.544 384.566 399.83C384.573 401.169 384.268 402.372 383.651 403.439C383.035 404.5 382.176 405.335 381.076 405.945C379.976 406.555 378.693 406.857 377.228 406.85ZM377.208 403.867C377.931 403.867 378.577 403.691 379.147 403.34C379.717 402.989 380.168 402.515 380.499 401.918C380.831 401.322 380.993 400.652 380.987 399.91C380.993 399.18 380.834 398.521 380.509 397.931C380.191 397.341 379.75 396.874 379.187 396.529C378.623 396.184 377.98 396.012 377.258 396.012C376.721 396.012 376.22 396.115 375.756 396.32C375.292 396.526 374.888 396.811 374.543 397.175C374.199 397.533 373.927 397.951 373.728 398.428C373.536 398.899 373.436 399.402 373.43 399.939C373.436 400.649 373.602 401.302 373.927 401.898C374.252 402.495 374.699 402.972 375.269 403.33C375.839 403.688 376.486 403.867 377.208 403.867ZM389.309 406.79C388.706 406.79 388.189 406.578 387.758 406.154C387.327 405.73 387.115 405.213 387.121 404.603C387.115 404.006 387.327 403.496 387.758 403.072C388.189 402.647 388.706 402.435 389.309 402.435C389.892 402.435 390.399 402.647 390.83 403.072C391.268 403.496 391.49 404.006 391.496 404.603C391.49 405.007 391.384 405.375 391.178 405.706C390.979 406.038 390.714 406.303 390.383 406.502C390.058 406.694 389.7 406.79 389.309 406.79ZM402.006 406.85C400.681 406.85 399.494 406.601 398.447 406.104C397.399 405.6 396.567 404.911 395.951 404.036C395.341 403.161 395.016 402.16 394.977 401.033H398.556C398.622 401.868 398.984 402.551 399.64 403.081C400.296 403.605 401.085 403.867 402.006 403.867C402.729 403.867 403.372 403.701 403.935 403.37C404.499 403.038 404.943 402.578 405.268 401.988C405.593 401.398 405.752 400.725 405.745 399.969C405.752 399.2 405.589 398.518 405.258 397.921C404.926 397.324 404.472 396.857 403.896 396.519C403.319 396.174 402.656 396.002 401.907 396.002C401.297 395.995 400.697 396.108 400.107 396.34C399.517 396.572 399.05 396.877 398.705 397.255L395.374 396.708L396.438 386.208H408.251V389.29H399.491L398.904 394.689H399.023C399.401 394.245 399.935 393.877 400.624 393.586C401.314 393.287 402.069 393.138 402.891 393.138C404.124 393.138 405.225 393.43 406.192 394.013C407.16 394.59 407.923 395.385 408.479 396.4C409.036 397.414 409.315 398.574 409.315 399.88C409.315 401.225 409.003 402.425 408.38 403.479C407.763 404.527 406.905 405.352 405.805 405.955C404.711 406.552 403.445 406.85 402.006 406.85ZM419.884 406.85C418.406 406.85 417.094 406.601 415.947 406.104C414.807 405.607 413.912 404.928 413.262 404.066C412.619 403.197 412.301 402.213 412.308 401.113C412.301 400.258 412.487 399.472 412.864 398.756C413.242 398.04 413.753 397.444 414.396 396.966C415.045 396.483 415.768 396.174 416.563 396.042V395.902C415.516 395.67 414.667 395.137 414.018 394.302C413.375 393.46 413.057 392.489 413.063 391.388C413.057 390.341 413.348 389.406 413.938 388.584C414.528 387.762 415.337 387.116 416.364 386.645C417.392 386.168 418.565 385.929 419.884 385.929C421.19 385.929 422.353 386.168 423.374 386.645C424.402 387.116 425.21 387.762 425.8 388.584C426.397 389.406 426.695 390.341 426.695 391.388C426.695 392.489 426.367 393.46 425.711 394.302C425.061 395.137 424.223 395.67 423.195 395.902V396.042C423.991 396.174 424.707 396.483 425.343 396.966C425.986 397.444 426.496 398.04 426.874 398.756C427.259 399.472 427.451 400.258 427.451 401.113C427.451 402.213 427.126 403.197 426.477 404.066C425.827 404.928 424.932 405.607 423.792 406.104C422.658 406.601 421.356 406.85 419.884 406.85ZM419.884 404.006C420.647 404.006 421.309 403.877 421.873 403.618C422.436 403.353 422.874 402.982 423.185 402.505C423.497 402.027 423.656 401.477 423.663 400.854C423.656 400.205 423.487 399.631 423.156 399.134C422.831 398.63 422.383 398.236 421.813 397.951C421.25 397.666 420.607 397.523 419.884 397.523C419.155 397.523 418.505 397.666 417.935 397.951C417.365 398.236 416.915 398.63 416.583 399.134C416.258 399.631 416.099 400.205 416.106 400.854C416.099 401.477 416.252 402.027 416.563 402.505C416.875 402.975 417.312 403.343 417.876 403.608C418.446 403.874 419.115 404.006 419.884 404.006ZM419.884 394.729C420.507 394.729 421.058 394.603 421.535 394.351C422.019 394.099 422.4 393.748 422.678 393.297C422.957 392.847 423.099 392.326 423.106 391.736C423.099 391.153 422.96 390.643 422.688 390.205C422.416 389.761 422.039 389.42 421.555 389.181C421.071 388.936 420.514 388.813 419.884 388.813C419.241 388.813 418.674 388.936 418.184 389.181C417.7 389.42 417.322 389.761 417.05 390.205C416.785 390.643 416.656 391.153 416.663 391.736C416.656 392.326 416.789 392.847 417.06 393.297C417.339 393.742 417.72 394.093 418.204 394.351C418.694 394.603 419.254 394.729 419.884 394.729ZM437.789 385.929C438.764 385.936 439.712 386.108 440.633 386.447C441.561 386.778 442.396 387.322 443.139 388.077C443.881 388.826 444.471 389.831 444.909 391.09C445.346 392.349 445.565 393.907 445.565 395.763C445.572 397.513 445.386 399.078 445.008 400.456C444.637 401.829 444.103 402.989 443.407 403.937C442.711 404.885 441.873 405.607 440.892 406.104C439.911 406.601 438.807 406.85 437.581 406.85C436.295 406.85 435.154 406.598 434.16 406.094C433.172 405.59 432.374 404.901 431.764 404.026C431.154 403.151 430.779 402.15 430.64 401.023H434.27C434.455 401.832 434.833 402.475 435.403 402.952C435.98 403.423 436.706 403.658 437.581 403.658C438.993 403.658 440.08 403.045 440.842 401.819C441.604 400.592 441.985 398.889 441.985 396.708H441.846C441.521 397.291 441.1 397.795 440.583 398.219C440.066 398.637 439.48 398.958 438.824 399.184C438.174 399.409 437.484 399.522 436.755 399.522C435.562 399.522 434.488 399.237 433.534 398.667C432.586 398.097 431.833 397.314 431.277 396.32C430.726 395.326 430.448 394.189 430.441 392.91C430.441 391.584 430.746 390.394 431.356 389.34C431.973 388.279 432.831 387.444 433.931 386.834C435.032 386.218 436.318 385.916 437.789 385.929ZM437.799 388.912C437.083 388.912 436.437 389.088 435.86 389.439C435.29 389.784 434.84 390.255 434.508 390.851C434.183 391.441 434.021 392.101 434.021 392.83C434.028 393.553 434.19 394.209 434.508 394.799C434.833 395.389 435.274 395.856 435.831 396.201C436.394 396.545 437.037 396.718 437.76 396.718C438.297 396.718 438.797 396.615 439.261 396.41C439.725 396.204 440.129 395.919 440.474 395.554C440.825 395.183 441.097 394.762 441.289 394.292C441.488 393.821 441.584 393.324 441.578 392.8C441.578 392.104 441.412 391.461 441.081 390.871C440.756 390.281 440.308 389.807 439.738 389.449C439.175 389.091 438.529 388.912 437.799 388.912Z" fill="black"/>
<mask id="path-28-inside-1_9_149" fill="white">
<path d="M109 456.857H573V516.429H109V456.857Z"/>
</mask>
<path d="M109 457.657H573V456.057H109V457.657Z" fill="#1C1C1C" fill-opacity="0.1" mask="url(#path-28-inside-1_9_149)"/>
<path d="M128.474 491.399C126.877 491.399 125.622 490.795 124.707 489.589C123.805 488.369 123.354 486.754 123.354 484.743C123.354 482.731 123.805 481.122 124.707 479.915C125.622 478.696 126.877 478.087 128.474 478.087C130.083 478.087 131.339 478.696 132.241 479.915C133.143 481.122 133.594 482.731 133.594 484.743C133.594 486.754 133.143 488.369 132.241 489.589C131.339 490.795 130.083 491.399 128.474 491.399ZM126.536 487.87C126.975 488.577 127.621 488.93 128.474 488.93C129.328 488.93 129.974 488.571 130.413 487.851C130.864 487.132 131.089 486.096 131.089 484.743C131.089 483.377 130.864 482.335 130.413 481.616C129.974 480.897 129.328 480.537 128.474 480.537C127.621 480.537 126.975 480.897 126.536 481.616C126.097 482.335 125.878 483.377 125.878 484.743C125.878 486.108 126.097 487.15 126.536 487.87ZM151.092 484.267V485.255C151.092 487.083 150.506 488.565 149.336 489.698C148.166 490.832 146.654 491.399 144.801 491.399C142.826 491.399 141.187 490.759 139.882 489.479C138.59 488.187 137.944 486.614 137.944 484.761C137.944 482.896 138.584 481.317 139.864 480.025C141.156 478.733 142.753 478.087 144.655 478.087C145.85 478.087 146.941 478.361 147.928 478.91C148.916 479.446 149.684 480.165 150.232 481.067L148.074 482.311C147.77 481.787 147.306 481.36 146.685 481.031C146.075 480.702 145.393 480.537 144.637 480.537C143.418 480.537 142.412 480.939 141.62 481.744C140.839 482.536 140.449 483.542 140.449 484.761C140.449 485.968 140.846 486.968 141.638 487.76C142.442 488.54 143.503 488.93 144.82 488.93C145.795 488.93 146.599 488.717 147.233 488.29C147.879 487.851 148.318 487.254 148.55 486.498H144.673V484.267H151.092ZM159.89 484.505C161.011 485.151 161.572 486.126 161.572 487.431C161.572 488.516 161.188 489.406 160.42 490.101C159.652 490.795 158.707 491.143 157.586 491.143H152.155V478.343H157.202C158.299 478.343 159.219 478.684 159.963 479.367C160.719 480.037 161.097 480.897 161.097 481.945C161.097 483.006 160.694 483.859 159.89 484.505ZM157.202 480.702H154.678V483.518H157.202C157.592 483.518 157.915 483.384 158.171 483.115C158.439 482.847 158.573 482.512 158.573 482.11C158.573 481.707 158.445 481.372 158.189 481.104C157.933 480.836 157.604 480.702 157.202 480.702ZM157.586 488.784C158.013 488.784 158.366 488.644 158.646 488.363C158.927 488.071 159.067 487.705 159.067 487.266C159.067 486.84 158.927 486.486 158.646 486.206C158.366 485.913 158.013 485.767 157.586 485.767H154.678V488.784H157.586ZM167.268 478.343C168.499 478.343 169.535 478.757 170.376 479.586C171.217 480.415 171.638 481.433 171.638 482.64C171.638 483.847 171.217 484.865 170.376 485.694C169.535 486.523 168.499 486.937 167.268 486.937H165.018V491.143H162.495V478.343H167.268ZM167.268 484.578C167.804 484.578 168.249 484.395 168.602 484.03C168.956 483.652 169.133 483.189 169.133 482.64C169.133 482.079 168.956 481.616 168.602 481.25C168.249 480.885 167.804 480.702 167.268 480.702H165.018V484.578H167.268Z" fill="black"/>
<path d="M500.442 489.442C499.162 490.734 497.596 491.381 495.743 491.381C493.89 491.381 492.323 490.734 491.043 489.442C489.763 488.15 489.123 486.584 489.123 484.743C489.123 482.89 489.763 481.323 491.043 480.043C492.323 478.751 493.89 478.105 495.743 478.105C497.596 478.105 499.162 478.751 500.442 480.043C501.734 481.323 502.381 482.89 502.381 484.743C502.381 486.584 501.734 488.15 500.442 489.442ZM492.214 488.29C493.165 489.241 494.341 489.717 495.743 489.717C497.145 489.717 498.315 489.241 499.254 488.29C500.205 487.327 500.68 486.145 500.68 484.743C500.68 483.329 500.205 482.146 499.254 481.195C498.315 480.232 497.145 479.751 495.743 479.751C494.341 479.751 493.165 480.232 492.214 481.195C491.275 482.146 490.806 483.329 490.806 484.743C490.806 486.145 491.275 487.327 492.214 488.29ZM509.927 482H511.518V491.143H509.927V489.826C509.281 490.862 508.293 491.381 506.965 491.381C505.892 491.381 505.032 491.045 504.386 490.375C503.74 489.692 503.417 488.772 503.417 487.614V482H505.008V487.522C505.008 488.266 505.209 488.845 505.611 489.259C506.014 489.662 506.568 489.863 507.275 489.863C508.068 489.863 508.708 489.619 509.195 489.131C509.683 488.632 509.927 487.87 509.927 486.846V482ZM514.799 483.536C515.323 482.402 516.274 481.835 517.652 481.835V483.499C516.871 483.463 516.201 483.67 515.64 484.121C515.079 484.572 514.799 485.297 514.799 486.297V491.143H513.208V482H514.799V483.536ZM527.016 479.641C525.407 479.507 524.603 480.202 524.603 481.726V482H527.016V483.536H524.603V491.143H523.012V483.536H521.549V482H523.012V481.726C523.012 480.494 523.353 479.562 524.036 478.928C524.731 478.294 525.724 478.02 527.016 478.105V479.641ZM528.112 487.303C528.27 488.12 528.642 488.753 529.227 489.205C529.824 489.656 530.556 489.881 531.421 489.881C532.628 489.881 533.506 489.436 534.054 488.546L535.408 489.314C534.518 490.692 533.177 491.381 531.385 491.381C529.934 491.381 528.752 490.929 527.837 490.027C526.935 489.113 526.484 487.961 526.484 486.571C526.484 485.194 526.929 484.048 527.819 483.134C528.709 482.219 529.861 481.762 531.275 481.762C532.616 481.762 533.707 482.238 534.548 483.189C535.401 484.127 535.828 485.261 535.828 486.59C535.828 486.821 535.81 487.059 535.773 487.303H528.112ZM531.275 483.262C530.422 483.262 529.715 483.505 529.154 483.993C528.593 484.469 528.246 485.109 528.112 485.913H534.219C534.085 485.048 533.744 484.389 533.195 483.938C532.646 483.487 532.006 483.262 531.275 483.262ZM538.023 487.303C538.181 488.12 538.553 488.753 539.138 489.205C539.736 489.656 540.467 489.881 541.333 489.881C542.54 489.881 543.417 489.436 543.966 488.546L545.319 489.314C544.429 490.692 543.088 491.381 541.296 491.381C539.845 491.381 538.663 490.929 537.749 490.027C536.847 489.113 536.396 487.961 536.396 486.571C536.396 485.194 536.84 484.048 537.73 483.134C538.62 482.219 539.772 481.762 541.186 481.762C542.527 481.762 543.618 482.238 544.46 483.189C545.313 484.127 545.74 485.261 545.74 486.59C545.74 486.821 545.721 487.059 545.685 487.303H538.023ZM541.186 483.262C540.333 483.262 539.626 483.505 539.065 483.993C538.504 484.469 538.157 485.109 538.023 485.913H544.13C543.996 485.048 543.655 484.389 543.106 483.938C542.558 483.487 541.918 483.262 541.186 483.262Z" fill="black"/>
<path d="M266.72 542.629V552.429H265.432V544.771L262.226 550.105H262.058L258.852 544.785V552.429H257.55V542.629H259.02L262.142 547.809L265.25 542.629H266.72ZM274.038 551.547C273.319 552.256 272.446 552.611 271.42 552.611C270.393 552.611 269.52 552.256 268.802 551.547C268.092 550.837 267.738 549.965 267.738 548.929C267.738 547.893 268.092 547.02 268.802 546.311C269.52 545.601 270.393 545.247 271.42 545.247C272.446 545.247 273.319 545.601 274.038 546.311C274.756 547.02 275.116 547.893 275.116 548.929C275.116 549.965 274.756 550.837 274.038 551.547ZM271.42 551.421C272.12 551.421 272.708 551.183 273.184 550.707C273.66 550.231 273.898 549.638 273.898 548.929C273.898 548.219 273.66 547.627 273.184 547.151C272.708 546.675 272.12 546.437 271.42 546.437C270.729 546.437 270.146 546.675 269.67 547.151C269.194 547.627 268.956 548.219 268.956 548.929C268.956 549.638 269.194 550.231 269.67 550.707C270.146 551.183 270.729 551.421 271.42 551.421ZM279.477 545.247C280.299 545.247 280.957 545.508 281.451 546.031C281.946 546.544 282.193 547.244 282.193 548.131V552.429H280.975V548.201C280.975 547.631 280.821 547.193 280.513 546.885C280.205 546.567 279.781 546.409 279.239 546.409C278.633 546.409 278.143 546.6 277.769 546.983C277.396 547.356 277.209 547.935 277.209 548.719V552.429H275.991V545.429H277.209V546.437C277.704 545.643 278.46 545.247 279.477 545.247ZM284.188 549.489C284.309 550.114 284.594 550.599 285.042 550.945C285.499 551.29 286.059 551.463 286.722 551.463C287.646 551.463 288.318 551.122 288.738 550.441L289.774 551.029C289.093 552.083 288.066 552.611 286.694 552.611C285.583 552.611 284.678 552.265 283.978 551.575C283.287 550.875 282.942 549.993 282.942 548.929C282.942 547.874 283.283 546.997 283.964 546.297C284.645 545.597 285.527 545.247 286.61 545.247C287.637 545.247 288.472 545.611 289.116 546.339C289.769 547.057 290.096 547.925 290.096 548.943C290.096 549.12 290.082 549.302 290.054 549.489H284.188ZM286.61 546.395C285.957 546.395 285.415 546.581 284.986 546.955C284.557 547.319 284.291 547.809 284.188 548.425H288.864C288.761 547.762 288.5 547.258 288.08 546.913C287.66 546.567 287.17 546.395 286.61 546.395ZM295.549 545.429H296.851L293.995 552.863C293.696 553.656 293.276 554.258 292.735 554.669C292.203 555.089 291.587 555.275 290.887 555.229V554.095C291.745 554.16 292.375 553.684 292.777 552.667L292.903 552.401L289.851 545.429H291.153L293.533 550.917L295.549 545.429ZM301.298 547.319C301.298 547.589 301.433 547.809 301.704 547.977C301.974 548.135 302.301 548.266 302.684 548.369C303.066 548.462 303.449 548.574 303.832 548.705C304.214 548.826 304.541 549.041 304.812 549.349C305.082 549.647 305.218 550.035 305.218 550.511C305.218 551.145 304.97 551.654 304.476 552.037C303.99 552.419 303.365 552.611 302.6 552.611C301.918 552.611 301.335 552.461 300.85 552.163C300.364 551.864 300.019 551.467 299.814 550.973L300.864 550.371C300.976 550.707 301.186 550.973 301.494 551.169C301.802 551.365 302.17 551.463 302.6 551.463C303.001 551.463 303.332 551.388 303.594 551.239C303.855 551.08 303.986 550.837 303.986 550.511C303.986 550.24 303.85 550.025 303.58 549.867C303.309 549.699 302.982 549.568 302.6 549.475C302.217 549.372 301.834 549.255 301.452 549.125C301.069 548.994 300.742 548.779 300.472 548.481C300.201 548.182 300.066 547.799 300.066 547.333C300.066 546.726 300.299 546.227 300.766 545.835C301.242 545.443 301.834 545.247 302.544 545.247C303.113 545.247 303.617 545.377 304.056 545.639C304.504 545.891 304.84 546.245 305.064 546.703L304.042 547.277C303.79 546.679 303.29 546.381 302.544 546.381C302.198 546.381 301.904 546.465 301.662 546.633C301.419 546.791 301.298 547.02 301.298 547.319ZM309.517 545.247C310.339 545.247 310.997 545.508 311.491 546.031C311.986 546.544 312.233 547.244 312.233 548.131V552.429H311.015V548.201C311.015 547.631 310.861 547.193 310.553 546.885C310.245 546.567 309.821 546.409 309.279 546.409C308.673 546.409 308.183 546.6 307.809 546.983C307.436 547.356 307.249 547.935 307.249 548.719V552.429H306.031V542.629H307.249V546.437C307.744 545.643 308.5 545.247 309.517 545.247ZM319.282 551.547C318.563 552.256 317.69 552.611 316.664 552.611C315.637 552.611 314.764 552.256 314.046 551.547C313.336 550.837 312.982 549.965 312.982 548.929C312.982 547.893 313.336 547.02 314.046 546.311C314.764 545.601 315.637 545.247 316.664 545.247C317.69 545.247 318.563 545.601 319.282 546.311C320 547.02 320.36 547.893 320.36 548.929C320.36 549.965 320 550.837 319.282 551.547ZM316.664 551.421C317.364 551.421 317.952 551.183 318.428 550.707C318.904 550.231 319.142 549.638 319.142 548.929C319.142 548.219 318.904 547.627 318.428 547.151C317.952 546.675 317.364 546.437 316.664 546.437C315.973 546.437 315.39 546.675 314.914 547.151C314.438 547.627 314.2 548.219 314.2 548.929C314.2 549.638 314.438 550.231 314.914 550.707C315.39 551.183 315.973 551.421 316.664 551.421ZM326.066 545.429H327.284V552.429H326.066V551.421C325.571 552.214 324.815 552.611 323.798 552.611C322.976 552.611 322.318 552.354 321.824 551.841C321.329 551.318 321.082 550.613 321.082 549.727V545.429H322.3V549.657C322.3 550.226 322.454 550.669 322.762 550.987C323.07 551.295 323.494 551.449 324.036 551.449C324.642 551.449 325.132 551.262 325.506 550.889C325.879 550.506 326.066 549.923 326.066 549.139V545.429ZM328.578 552.429V542.209H329.796V552.429H328.578ZM336.89 542.629H338.108V552.429H336.89V551.225C336.283 552.149 335.401 552.611 334.244 552.611C333.264 552.611 332.429 552.256 331.738 551.547C331.047 550.828 330.702 549.955 330.702 548.929C330.702 547.902 331.047 547.034 331.738 546.325C332.429 545.606 333.264 545.247 334.244 545.247C335.401 545.247 336.283 545.709 336.89 546.633V542.629ZM334.398 551.435C335.107 551.435 335.7 551.197 336.176 550.721C336.652 550.235 336.89 549.638 336.89 548.929C336.89 548.219 336.652 547.627 336.176 547.151C335.7 546.665 335.107 546.423 334.398 546.423C333.698 546.423 333.11 546.665 332.634 547.151C332.158 547.627 331.92 548.219 331.92 548.929C331.92 549.638 332.158 550.235 332.634 550.721C333.11 551.197 333.698 551.435 334.398 551.435ZM348.129 545.429H349.347V552.429H348.129V551.225C347.523 552.149 346.641 552.611 345.483 552.611C344.503 552.611 343.668 552.256 342.977 551.547C342.287 550.828 341.941 549.955 341.941 548.929C341.941 547.902 342.287 547.034 342.977 546.325C343.668 545.606 344.503 545.247 345.483 545.247C346.641 545.247 347.523 545.709 348.129 546.633V545.429ZM345.637 551.435C346.347 551.435 346.939 551.197 347.415 550.721C347.891 550.235 348.129 549.638 348.129 548.929C348.129 548.219 347.891 547.627 347.415 547.151C346.939 546.665 346.347 546.423 345.637 546.423C344.937 546.423 344.349 546.665 343.873 547.151C343.397 547.627 343.159 548.219 343.159 548.929C343.159 549.638 343.397 550.235 343.873 550.721C344.349 551.197 344.937 551.435 345.637 551.435ZM351.851 546.605C352.252 545.737 352.98 545.303 354.035 545.303V546.577C353.437 546.549 352.924 546.707 352.495 547.053C352.065 547.398 351.851 547.953 351.851 548.719V552.429H350.633V545.429H351.851V546.605ZM355.885 546.605C356.286 545.737 357.014 545.303 358.069 545.303V546.577C357.471 546.549 356.958 546.707 356.529 547.053C356.099 547.398 355.885 547.953 355.885 548.719V552.429H354.667V545.429H355.885V546.605ZM359.316 544.155C359.083 544.155 358.887 544.075 358.728 543.917C358.57 543.758 358.49 543.567 358.49 543.343C358.49 543.119 358.57 542.927 358.728 542.769C358.887 542.601 359.083 542.517 359.316 542.517C359.54 542.517 359.732 542.601 359.89 542.769C360.049 542.927 360.128 543.119 360.128 543.343C360.128 543.567 360.049 543.758 359.89 543.917C359.732 544.075 359.54 544.155 359.316 544.155ZM358.7 552.429V545.429H359.918V552.429H358.7ZM366.117 545.429H367.433L364.633 552.429H363.205L360.405 545.429H361.721L363.919 551.127L366.117 545.429ZM368.483 549.489C368.604 550.114 368.889 550.599 369.337 550.945C369.794 551.29 370.354 551.463 371.017 551.463C371.941 551.463 372.613 551.122 373.033 550.441L374.069 551.029C373.388 552.083 372.361 552.611 370.989 552.611C369.878 552.611 368.973 552.265 368.273 551.575C367.582 550.875 367.237 549.993 367.237 548.929C367.237 547.874 367.578 546.997 368.259 546.297C368.94 545.597 369.822 545.247 370.905 545.247C371.932 545.247 372.767 545.611 373.411 546.339C374.064 547.057 374.391 547.925 374.391 548.943C374.391 549.12 374.377 549.302 374.349 549.489H368.483ZM370.905 546.395C370.252 546.395 369.71 546.581 369.281 546.955C368.852 547.319 368.586 547.809 368.483 548.425H373.159C373.056 547.762 372.795 547.258 372.375 546.913C371.955 546.567 371.465 546.395 370.905 546.395ZM378.787 544.155C378.554 544.155 378.358 544.075 378.199 543.917C378.041 543.758 377.961 543.567 377.961 543.343C377.961 543.119 378.041 542.927 378.199 542.769C378.358 542.601 378.554 542.517 378.787 542.517C379.011 542.517 379.203 542.601 379.361 542.769C379.52 542.927 379.599 543.119 379.599 543.343C379.599 543.567 379.52 543.758 379.361 543.917C379.203 544.075 379.011 544.155 378.787 544.155ZM378.171 552.429V545.429H379.389V552.429H378.171ZM384.173 545.247C384.995 545.247 385.653 545.508 386.147 546.031C386.642 546.544 386.889 547.244 386.889 548.131V552.429H385.671V548.201C385.671 547.631 385.517 547.193 385.209 546.885C384.901 546.567 384.477 546.409 383.935 546.409C383.329 546.409 382.839 546.6 382.465 546.983C382.092 547.356 381.905 547.935 381.905 548.719V552.429H380.687V545.429H381.905V546.437C382.4 545.643 383.156 545.247 384.173 545.247ZM393.826 546.451C394.75 546.451 395.529 546.726 396.164 547.277C396.808 547.818 397.13 548.569 397.13 549.531C397.13 550.483 396.803 551.234 396.15 551.785C395.496 552.335 394.703 552.611 393.77 552.611C393.023 552.611 392.356 552.433 391.768 552.079C391.18 551.715 390.769 551.192 390.536 550.511L391.642 549.881C391.772 550.357 392.024 550.721 392.398 550.973C392.771 551.215 393.228 551.337 393.77 551.337C394.386 551.337 394.885 551.178 395.268 550.861C395.65 550.543 395.842 550.1 395.842 549.531C395.842 548.961 395.65 548.518 395.268 548.201C394.885 547.874 394.395 547.711 393.798 547.711H391.026L391.39 542.629H396.752V543.847H392.566L392.398 546.451H393.826ZM405.571 545.247C406.355 545.247 406.99 545.503 407.475 546.017C407.961 546.521 408.203 547.207 408.203 548.075V552.429H406.985V548.117C406.985 547.575 406.845 547.155 406.565 546.857C406.285 546.558 405.912 546.409 405.445 546.409C404.923 546.409 404.503 546.586 404.185 546.941C403.877 547.286 403.723 547.818 403.723 548.537V552.429H402.505V548.117C402.505 547.575 402.37 547.155 402.099 546.857C401.838 546.558 401.479 546.409 401.021 546.409C400.508 546.409 400.079 546.586 399.733 546.941C399.397 547.295 399.229 547.827 399.229 548.537V552.429H398.011V545.429H399.229V546.367C399.705 545.62 400.401 545.247 401.315 545.247C402.258 545.247 402.944 545.643 403.373 546.437C403.859 545.643 404.591 545.247 405.571 545.247ZM409.948 544.155C409.715 544.155 409.519 544.075 409.36 543.917C409.202 543.758 409.122 543.567 409.122 543.343C409.122 543.119 409.202 542.927 409.36 542.769C409.519 542.601 409.715 542.517 409.948 542.517C410.172 542.517 410.364 542.601 410.522 542.769C410.681 542.927 410.76 543.119 410.76 543.343C410.76 543.567 410.681 543.758 410.522 543.917C410.364 544.075 410.172 544.155 409.948 544.155ZM409.332 552.429V545.429H410.55V552.429H409.332ZM415.334 545.247C416.156 545.247 416.814 545.508 417.308 546.031C417.803 546.544 418.05 547.244 418.05 548.131V552.429H416.832V548.201C416.832 547.631 416.678 547.193 416.37 546.885C416.062 546.567 415.638 546.409 415.096 546.409C414.49 546.409 414 546.6 413.626 546.983C413.253 547.356 413.066 547.935 413.066 548.719V552.429H411.848V545.429H413.066V546.437C413.561 545.643 414.317 545.247 415.334 545.247ZM420.241 547.319C420.241 547.589 420.376 547.809 420.647 547.977C420.917 548.135 421.244 548.266 421.627 548.369C422.009 548.462 422.392 548.574 422.775 548.705C423.157 548.826 423.484 549.041 423.755 549.349C424.025 549.647 424.161 550.035 424.161 550.511C424.161 551.145 423.913 551.654 423.419 552.037C422.933 552.419 422.308 552.611 421.543 552.611C420.861 552.611 420.278 552.461 419.793 552.163C419.307 551.864 418.962 551.467 418.757 550.973L419.807 550.371C419.919 550.707 420.129 550.973 420.437 551.169C420.745 551.365 421.113 551.463 421.543 551.463C421.944 551.463 422.275 551.388 422.537 551.239C422.798 551.08 422.929 550.837 422.929 550.511C422.929 550.24 422.793 550.025 422.523 549.867C422.252 549.699 421.925 549.568 421.543 549.475C421.16 549.372 420.777 549.255 420.395 549.125C420.012 548.994 419.685 548.779 419.415 548.481C419.144 548.182 419.009 547.799 419.009 547.333C419.009 546.726 419.242 546.227 419.709 545.835C420.185 545.443 420.777 545.247 421.487 545.247C422.056 545.247 422.56 545.377 422.999 545.639C423.447 545.891 423.783 546.245 424.007 546.703L422.985 547.277C422.733 546.679 422.233 546.381 421.487 546.381C421.141 546.381 420.847 546.465 420.605 546.633C420.362 546.791 420.241 547.02 420.241 547.319Z" fill="black"/>
<rect x="109" y="571.429" width="464" height="52" rx="26" fill="#009053"/>
<path d="M292.375 600.554H308.625C308.97 600.554 309.25 600.274 309.25 599.929V591.179C309.25 590.834 308.97 590.554 308.625 590.554H292.375C292.03 590.554 291.75 590.834 291.75 591.179V599.929C291.75 600.274 292.03 600.554 292.375 600.554Z" stroke="white" stroke-linejoin="round"/>
<path d="M293 602.429H308M294.25 604.304H306.75" stroke="white" stroke-linecap="round" stroke-linejoin="round"/>
<path d="M300.5 598.679C302.226 598.679 303.625 597.28 303.625 595.554C303.625 593.828 302.226 592.429 300.5 592.429C298.774 592.429 297.375 593.828 297.375 595.554C297.375 597.28 298.774 598.679 300.5 598.679Z" stroke="white" stroke-linecap="round" stroke-linejoin="round"/>
<path d="M309.25 593.679C308.421 593.679 307.626 593.349 307.04 592.763C306.454 592.177 306.125 591.383 306.125 590.554M291.75 593.679C292.16 593.679 292.567 593.598 292.946 593.441C293.325 593.284 293.67 593.054 293.96 592.763C294.25 592.473 294.48 592.129 294.637 591.75C294.794 591.37 294.875 590.964 294.875 590.554M309.25 597.429C308.421 597.429 307.626 597.758 307.04 598.344C306.454 598.93 306.125 599.725 306.125 600.554M291.75 597.429C292.16 597.429 292.567 597.51 292.946 597.667C293.325 597.824 293.67 598.054 293.96 598.344C294.25 598.634 294.48 598.979 294.637 599.358C294.794 599.737 294.875 600.143 294.875 600.554" stroke="white" stroke-linecap="round" stroke-linejoin="round"/>
<path d="M323.364 601.653C322.255 601.653 321.321 601.407 320.564 600.917C319.807 600.415 319.273 599.738 318.964 598.885L320.852 597.781C321.289 598.922 322.148 599.493 323.428 599.493C324.047 599.493 324.5 599.381 324.788 599.157C325.076 598.933 325.22 598.65 325.22 598.309C325.22 597.914 325.044 597.61 324.692 597.397C324.34 597.173 323.711 596.933 322.804 596.677C322.303 596.527 321.876 596.378 321.524 596.229C321.183 596.079 320.836 595.882 320.484 595.637C320.143 595.381 319.881 595.061 319.7 594.677C319.519 594.293 319.428 593.845 319.428 593.333C319.428 592.319 319.785 591.514 320.5 590.917C321.225 590.309 322.095 590.005 323.108 590.005C324.015 590.005 324.809 590.229 325.492 590.677C326.185 591.114 326.724 591.727 327.108 592.517L325.252 593.589C324.804 592.629 324.089 592.149 323.108 592.149C322.649 592.149 322.287 592.255 322.02 592.469C321.764 592.671 321.636 592.938 321.636 593.269C321.636 593.621 321.78 593.909 322.068 594.133C322.367 594.346 322.932 594.581 323.764 594.837C324.105 594.943 324.361 595.029 324.532 595.093C324.713 595.146 324.953 595.237 325.252 595.365C325.561 595.482 325.796 595.594 325.956 595.701C326.127 595.807 326.319 595.951 326.532 596.133C326.745 596.314 326.905 596.501 327.012 596.693C327.129 596.885 327.225 597.119 327.3 597.397C327.385 597.663 327.428 597.957 327.428 598.277C327.428 599.311 327.049 600.133 326.292 600.741C325.545 601.349 324.569 601.653 323.364 601.653ZM336.828 593.429H339.02L336.476 601.429H334.508L333.036 596.581L331.564 601.429H329.596L327.052 593.429H329.244L330.604 598.341L332.06 593.429H334.012L335.468 598.357L336.828 593.429ZM345.26 593.429H347.324V601.429H345.26V600.485C344.641 601.263 343.772 601.653 342.652 601.653C341.585 601.653 340.668 601.247 339.9 600.437C339.142 599.615 338.764 598.613 338.764 597.429C338.764 596.245 339.142 595.247 339.9 594.437C340.668 593.615 341.585 593.205 342.652 593.205C343.772 593.205 344.641 593.594 345.26 594.373V593.429ZM341.452 599.061C341.868 599.477 342.396 599.685 343.036 599.685C343.676 599.685 344.204 599.477 344.62 599.061C345.046 598.634 345.26 598.09 345.26 597.429C345.26 596.767 345.046 596.229 344.62 595.813C344.204 595.386 343.676 595.173 343.036 595.173C342.396 595.173 341.868 595.386 341.452 595.813C341.036 596.229 340.828 596.767 340.828 597.429C340.828 598.09 341.036 598.634 341.452 599.061ZM353.211 593.205C354.289 593.205 355.206 593.615 355.963 594.437C356.731 595.247 357.115 596.245 357.115 597.429C357.115 598.613 356.731 599.615 355.963 600.437C355.206 601.247 354.289 601.653 353.211 601.653C352.091 601.653 351.227 601.263 350.619 600.485V604.629H348.555V593.429H350.619V594.373C351.227 593.594 352.091 593.205 353.211 593.205ZM351.243 599.061C351.659 599.477 352.187 599.685 352.827 599.685C353.467 599.685 353.995 599.477 354.411 599.061C354.838 598.634 355.051 598.09 355.051 597.429C355.051 596.767 354.838 596.229 354.411 595.813C353.995 595.386 353.467 595.173 352.827 595.173C352.187 595.173 351.659 595.386 351.243 595.813C350.827 596.229 350.619 596.767 350.619 597.429C350.619 598.09 350.827 598.634 351.243 599.061ZM367.867 590.229H370.075V601.429H368.395L363.595 594.581V601.429H361.387V590.229H363.067L367.867 597.061V590.229ZM378.233 600.437C377.411 601.247 376.409 601.653 375.225 601.653C374.041 601.653 373.038 601.247 372.216 600.437C371.406 599.615 371 598.613 371 597.429C371 596.245 371.406 595.247 372.216 594.437C373.038 593.615 374.041 593.205 375.225 593.205C376.409 593.205 377.411 593.615 378.233 594.437C379.054 595.247 379.465 596.245 379.465 597.429C379.465 598.613 379.054 599.615 378.233 600.437ZM373.672 599.013C374.088 599.429 374.606 599.637 375.225 599.637C375.843 599.637 376.361 599.429 376.777 599.013C377.193 598.597 377.401 598.069 377.401 597.429C377.401 596.789 377.193 596.261 376.777 595.845C376.361 595.429 375.843 595.221 375.225 595.221C374.606 595.221 374.088 595.429 373.672 595.845C373.267 596.261 373.064 596.789 373.064 597.429C373.064 598.069 373.267 598.597 373.672 599.013ZM388.972 593.429H391.164L388.62 601.429H386.652L385.18 596.581L383.708 601.429H381.74L379.196 593.429H381.388L382.748 598.341L384.204 593.429H386.156L387.612 598.357L388.972 593.429Z" fill="white"/>
<path d="M50.06 64.1466C47.78 64.1466 45.88 63.6766 44.36 62.7366C42.84 61.7766 41.82 60.4866 41.3 58.8666L46.43 55.8966C47.13 57.6766 48.39 58.5666 50.21 58.5666C51.57 58.5666 52.25 58.2066 52.25 57.4866C52.25 57.2866 52.2 57.1066 52.1 56.9466C52 56.7866 51.81 56.6466 51.53 56.5266C51.25 56.4066 51 56.3166 50.78 56.2566C50.58 56.1766 50.22 56.0666 49.7 55.9266C49.18 55.7866 48.79 55.6766 48.53 55.5966C44.35 54.3366 42.26 52.0866 42.26 48.8466C42.26 46.9266 42.95 45.3366 44.33 44.0766C45.73 42.8166 47.56 42.1866 49.82 42.1866C51.6 42.1866 53.19 42.6066 54.59 43.4466C56.01 44.2866 57.05 45.4966 57.71 47.0766L52.73 49.9866C52.15 48.5066 51.19 47.7666 49.85 47.7666C49.33 47.7666 48.93 47.8766 48.65 48.0966C48.39 48.2966 48.26 48.5566 48.26 48.8766C48.26 49.3166 48.49 49.6566 48.95 49.8966C49.43 50.1366 50.34 50.4466 51.68 50.8266C52.68 51.1266 53.5 51.4166 54.14 51.6966C54.78 51.9566 55.45 52.3366 56.15 52.8366C56.85 53.3166 57.37 53.9466 57.71 54.7266C58.07 55.4866 58.25 56.3866 58.25 57.4266C58.25 59.5666 57.51 61.2266 56.03 62.4066C54.57 63.5666 52.58 64.1466 50.06 64.1466ZM62.7029 63.6666L56.7629 42.6666H63.3629L66.2129 54.2166L69.6029 42.6666H74.2229L77.6129 54.2166L80.4629 42.6666H87.0629L81.1229 63.6666H75.2129L71.9129 52.4466L68.6129 63.6666H62.7029ZM98.3047 63.6666L97.5847 60.9666H91.5247L90.8047 63.6666H84.3547L91.0447 42.6666H98.0647L104.755 63.6666H98.3047ZM92.8147 56.1666H96.2947L94.5547 49.7166L92.8147 56.1666ZM113.159 42.6666C115.339 42.6666 117.159 43.3566 118.619 44.7366C120.079 46.0966 120.809 47.9166 120.809 50.1966C120.809 52.4766 120.079 54.3066 118.619 55.6866C117.159 57.0466 115.339 57.7266 113.159 57.7266H110.759V63.6666H104.759V42.6666H113.159ZM113.159 51.9066C113.619 51.9066 114.009 51.7566 114.329 51.4566C114.649 51.1366 114.809 50.7166 114.809 50.1966C114.809 49.6766 114.649 49.2666 114.329 48.9666C114.009 48.6466 113.619 48.4866 113.159 48.4866H110.759V51.9066H113.159ZM137.607 42.6666H143.607V63.6666H138.807L132.207 54.0666V63.6666H126.207V42.6666H131.007L137.607 52.2666V42.6666ZM163.668 60.9966C161.528 63.0966 158.898 64.1466 155.778 64.1466C152.658 64.1466 150.018 63.0966 147.858 60.9966C145.718 58.8766 144.648 56.2666 144.648 53.1666C144.648 50.0666 145.718 47.4666 147.858 45.3666C150.018 43.2466 152.658 42.1866 155.778 42.1866C158.898 42.1866 161.528 43.2466 163.668 45.3666C165.828 47.4666 166.908 50.0666 166.908 53.1666C166.908 56.2666 165.828 58.8766 163.668 60.9966ZM152.088 56.8266C153.068 57.7866 154.298 58.2666 155.778 58.2666C157.258 58.2666 158.478 57.7866 159.438 56.8266C160.418 55.8466 160.908 54.6266 160.908 53.1666C160.908 51.7066 160.418 50.4966 159.438 49.5366C158.478 48.5566 157.258 48.0666 155.778 48.0666C154.298 48.0666 153.068 48.5566 152.088 49.5366C151.128 50.4966 150.648 51.7066 150.648 53.1666C150.648 54.6266 151.128 55.8466 152.088 56.8266ZM171.196 63.6666L165.256 42.6666H171.856L174.706 54.2166L178.096 42.6666H182.716L186.106 54.2166L188.956 42.6666H195.556L189.616 63.6666H183.706L180.406 52.4466L177.106 63.6666H171.196ZM196.599 55.8666L195.549 48.6666V42.6666H202.449V48.6666L201.399 55.8666H196.599ZM201.429 63.1266C200.769 63.7866 199.959 64.1166 198.999 64.1166C198.039 64.1166 197.219 63.7866 196.539 63.1266C195.879 62.4466 195.549 61.6266 195.549 60.6666C195.549 59.7066 195.879 58.8966 196.539 58.2366C197.219 57.5566 198.039 57.2166 198.999 57.2166C199.959 57.2166 200.769 57.5566 201.429 58.2366C202.109 58.8966 202.449 59.7066 202.449 60.6666C202.449 61.6266 202.109 62.4466 201.429 63.1266ZM204.686 55.8666L203.636 48.6666V42.6666H210.536V48.6666L209.486 55.8666H204.686ZM209.516 63.1266C208.856 63.7866 208.046 64.1166 207.086 64.1166C206.126 64.1166 205.306 63.7866 204.626 63.1266C203.966 62.4466 203.636 61.6266 203.636 60.6666C203.636 59.7066 203.966 58.8966 204.626 58.2366C205.306 57.5566 206.126 57.2166 207.086 57.2166C208.046 57.2166 208.856 57.5566 209.516 58.2366C210.196 58.8966 210.536 59.7066 210.536 60.6666C210.536 61.6266 210.196 62.4466 209.516 63.1266ZM212.773 55.8666L211.723 48.6666V42.6666H218.623V48.6666L217.573 55.8666H212.773ZM217.603 63.1266C216.943 63.7866 216.133 64.1166 215.173 64.1166C214.213 64.1166 213.393 63.7866 212.713 63.1266C212.053 62.4466 211.723 61.6266 211.723 60.6666C211.723 59.7066 212.053 58.8966 212.713 58.2366C213.393 57.5566 214.213 57.2166 215.173 57.2166C216.133 57.2166 216.943 57.5566 217.603 58.2366C218.283 58.8966 218.623 59.7066 218.623 60.6666C218.623 61.6266 218.283 62.4466 217.603 63.1266Z" fill="black"/>
<defs>
<clipPath id="clip0_9_149">
<rect width="28.5714" height="21.4286" fill="white" transform="translate(125.643 186.286)"/>
</clipPath>
<clipPath id="clip1_9_149">
<rect width="28.5714" height="21.4286" fill="white" transform="translate(126.143 385.429)"/>
</clipPath>
</defs>
</svg>
