<svg width="12" height="13" viewBox="0 0 12 13" fill="none" xmlns="http://www.w3.org/2000/svg">
<path d="M10.75 5C10.7502 5.6418 10.5604 6.26929 10.2044 6.80336C9.84852 7.33742 9.34243 7.75415 8.75 8.001V8C8.75 6.87283 8.30223 5.79182 7.5052 4.99479C6.70817 4.19776 5.62717 3.75 4.5 3.75H4.499C4.7884 3.05686 5.30889 2.48533 5.972 2.13253C6.63512 1.77972 7.39993 1.66742 8.13648 1.8147C8.87302 1.96199 9.53584 2.35977 10.0123 2.94045C10.4887 3.52113 10.7494 4.24887 10.75 5ZM3.5 2C2.96957 2 2.46086 2.21071 2.08579 2.58578C1.71071 2.96086 1.5 3.46956 1.5 4V4.75H2.5V4C2.5 3.73478 2.60536 3.48043 2.79289 3.29289C2.98043 3.10535 3.23478 3 3.5 3H4.25V2H3.5ZM9.5 8.25V9C9.5 9.26521 9.39464 9.51957 9.20711 9.7071C9.01957 9.89464 8.76522 10 8.5 10H7.75V11H8.5C9.03043 11 9.53914 10.7893 9.91421 10.4142C10.2893 10.0391 10.5 9.53043 10.5 9V8.25H9.5ZM4.5 11.25C5.36195 11.25 6.1886 10.9076 6.7981 10.2981C7.40759 9.6886 7.75 8.86195 7.75 8C7.75 7.13804 7.40759 6.31139 6.7981 5.7019C6.1886 5.09241 5.36195 4.75 4.5 4.75C3.63805 4.75 2.8114 5.09241 2.2019 5.7019C1.59241 6.31139 1.25 7.13804 1.25 8C1.25 8.86195 1.59241 9.6886 2.2019 10.2981C2.8114 10.9076 3.63805 11.25 4.5 11.25ZM4.5 6.75L5.75 8L4.5 9.25L3.25 8L4.5 6.75Z" fill="black"/>
</svg>
