<svg width="41" height="40" viewBox="0 0 41 40" fill="none" xmlns="http://www.w3.org/2000/svg">
<g clip-path="url(#clip0_62_1387)">
<path d="M20.5 40C31.5834 40 40.5 31.0834 40.5 20C40.5 8.9166 31.5834 0 20.5 0C9.4166 0 0.5 8.9166 0.5 20C0.5 31.0834 9.4166 40 20.5 40Z" fill="#2775CA"/>
<path d="M26.0005 23.1664C26.0005 20.2498 24.2505 19.2498 20.7505 18.8332C18.2506 18.4998 17.7506 17.8332 17.7506 16.6664C17.7506 15.4996 18.584 14.7498 20.2505 14.7498C21.7505 14.7498 22.5839 15.2498 23.0005 16.4998C23.0839 16.7498 23.3339 16.9164 23.5839 16.9164H24.9171C25.2505 16.9164 25.5005 16.6664 25.5005 16.3332V16.2498C25.1671 14.4164 23.6671 12.9998 21.7505 12.8332V10.8332C21.7505 10.4998 21.5005 10.2498 21.0839 10.1664H19.8339C19.5005 10.1664 19.2505 10.4164 19.1671 10.8332V12.7498C16.6672 13.0832 15.084 14.7498 15.084 16.8332C15.084 19.5832 16.7506 20.6664 20.2505 21.0832C22.5839 21.4998 23.3339 21.9998 23.3339 23.3332C23.3339 24.6666 22.1671 25.5833 20.5839 25.5833C18.4172 25.5833 17.6672 24.6664 17.4172 23.4164C17.334 23.0832 17.084 22.9164 16.834 22.9164H15.4172C15.084 22.9164 14.834 23.1664 14.834 23.4998V23.5832C15.1672 25.6665 16.5006 27.1665 19.2505 27.5833V29.5833C19.2505 29.9165 19.5005 30.1665 19.9171 30.2499H21.1671C21.5005 30.2499 21.7505 29.9999 21.8339 29.5833V27.5833C24.3339 27.1665 26.0005 25.4165 26.0005 23.1664Z" fill="white"/>
<path d="M16.2497 31.9168C9.74967 29.5836 6.41627 22.3336 8.83307 15.9168C10.0831 12.4168 12.8331 9.7502 16.2497 8.5002C16.5831 8.3336 16.7497 8.0836 16.7497 7.6668V6.5002C16.7497 6.1668 16.5831 5.9168 16.2497 5.8336C16.1663 5.8336 15.9997 5.8336 15.9163 5.9168C7.99967 8.4168 3.66627 16.8336 6.16627 24.7502C7.66627 29.4168 11.2497 33.0002 15.9163 34.5002C16.2497 34.6668 16.5831 34.5002 16.6663 34.1668C16.7497 34.0836 16.7497 34.0002 16.7497 33.8336V32.6668C16.7497 32.4168 16.4997 32.0836 16.2497 31.9168ZM25.0831 5.9168C24.7497 5.7502 24.4163 5.9168 24.3331 6.2502C24.2497 6.3336 24.2497 6.4168 24.2497 6.5836V7.7502C24.2497 8.0836 24.4997 8.4168 24.7497 8.5836C31.2497 10.9168 34.5831 18.1668 32.1663 24.5836C30.9163 28.0836 28.1663 30.7502 24.7497 32.0002C24.4163 32.1668 24.2497 32.4168 24.2497 32.8336V34.0002C24.2497 34.3336 24.4163 34.5836 24.7497 34.6668C24.8331 34.6668 24.9997 34.6668 25.0831 34.5836C32.9997 32.0836 37.3331 23.6668 34.8331 15.7502C33.3331 11.0002 29.6663 7.4168 25.0831 5.9168Z" fill="white"/>
</g>
<defs>
<clipPath id="clip0_62_1387">
<rect width="40" height="40" fill="white" transform="translate(0.5)"/>
</clipPath>
</defs>
</svg>
