<svg width="21" height="20" viewBox="0 0 21 20" fill="none" xmlns="http://www.w3.org/2000/svg">
<path d="M4.25 5.41667C4.25 4.97464 4.42559 4.55072 4.73816 4.23816C5.05072 3.92559 5.47464 3.75 5.91667 3.75H15.4408C15.4958 3.75 15.5242 3.75 15.5467 3.7525C15.6404 3.76323 15.7276 3.80542 15.7942 3.87217C15.8608 3.93892 15.9028 4.02629 15.9133 4.12C15.9167 4.15517 15.9178 4.19052 15.9167 4.22583C15.9167 4.5575 15.9167 4.72333 15.9008 4.86333C15.8374 5.42606 15.5848 5.95058 15.1843 6.35101C14.7839 6.75144 14.2594 7.00405 13.6967 7.0675C13.5567 7.08333 13.3908 7.08333 13.0592 7.08333H13M4.25 5.41667C4.25 5.85869 4.42559 6.28262 4.73816 6.59518C5.05072 6.90774 5.47464 7.08333 5.91667 7.08333H15.0833C15.8692 7.08333 16.2617 7.08333 16.5058 7.3275C16.75 7.57167 16.75 7.96417 16.75 8.75V10.4167M4.25 5.41667V12.9167C4.25 14.4883 4.25 15.2733 4.73833 15.7617C5.22667 16.25 6.01167 16.25 7.58333 16.25H15.0833C15.8692 16.25 16.2617 16.25 16.5058 16.0058C16.75 15.7617 16.75 15.3692 16.75 14.5833V13.75M16.75 10.4167H15.0833C14.2975 10.4167 13.905 10.4167 13.6608 10.6608C13.4167 10.905 13.4167 11.2975 13.4167 12.0833C13.4167 12.8692 13.4167 13.2617 13.6608 13.5058C13.905 13.75 14.2975 13.75 15.0833 13.75H16.75M16.75 10.4167V13.75" stroke="black"/>
</svg>
