<svg width="25" height="24" viewBox="0 0 25 24" fill="none" xmlns="http://www.w3.org/2000/svg">
<g clip-path="url(#clip0_424_4)">
<path d="M1.10121 11.8564C1.10065 13.8728 1.62754 15.8418 2.6294 17.5772L1.0054 23.5067L7.07349 21.9156C8.75185 22.8293 10.6323 23.308 12.5433 23.3082H12.5483C18.8567 23.3082 23.9918 18.1749 23.9945 11.8654C23.9957 8.808 22.8061 5.93302 20.6448 3.77005C18.4839 1.60726 15.61 0.415534 12.5478 0.414139C6.2387 0.414139 1.10391 5.54716 1.1013 11.8564" fill="url(#paint0_linear_424_4)"/>
<path d="M0.69256 11.8527C0.691909 13.9417 1.23768 15.981 2.27526 17.7786L0.593025 23.9207L6.8787 22.2726C8.61061 23.2168 10.5606 23.7147 12.5447 23.7154H12.5499C19.0846 23.7154 24.4042 18.3975 24.407 11.8621C24.4081 8.69488 23.1757 5.71656 20.9372 3.47609C18.6984 1.23591 15.7217 0.00130233 12.5499 0C6.01405 0 0.695165 5.31721 0.69256 11.8527ZM4.43591 17.469L4.20121 17.0965C3.21461 15.5277 2.69386 13.7149 2.69461 11.8534C2.69665 6.4213 7.11749 2.00186 12.5536 2.00186C15.1861 2.00298 17.6602 3.02921 19.521 4.89116C21.3818 6.7533 22.4057 9.22865 22.405 11.8614C22.4026 17.2935 17.9817 21.7135 12.5499 21.7135H12.546C10.7773 21.7126 9.0427 21.2376 7.52996 20.34L7.16996 20.1265L3.43991 21.1045L4.43591 17.469Z" fill="url(#paint1_linear_424_4)"/>
<path d="M9.58633 6.89749C9.36437 6.40419 9.13079 6.39423 8.91972 6.38558C8.74689 6.37814 8.5493 6.3787 8.35191 6.3787C8.15433 6.3787 7.8333 6.45302 7.56196 6.7493C7.29033 7.04586 6.52493 7.76251 6.52493 9.22009C6.52493 10.6777 7.58661 12.0864 7.73461 12.2843C7.88279 12.4818 9.78419 15.5687 12.7955 16.7562C15.2982 17.7431 15.8075 17.5468 16.3507 17.4973C16.894 17.448 18.1036 16.7808 18.3504 16.089C18.5974 15.3973 18.5974 14.8044 18.5234 14.6805C18.4493 14.557 18.2517 14.4829 17.9554 14.3348C17.6592 14.1867 16.2025 13.4699 15.931 13.371C15.6594 13.2722 15.4619 13.2229 15.2643 13.5195C15.0667 13.8157 14.4994 14.4829 14.3264 14.6805C14.1537 14.8785 13.9807 14.9032 13.6846 14.755C13.3881 14.6063 12.434 14.2939 11.302 13.2847C10.4212 12.4993 9.82661 11.5296 9.65377 11.2329C9.48093 10.9367 9.63526 10.7762 9.78382 10.6286C9.91693 10.4958 10.0802 10.2826 10.2285 10.1097C10.3762 9.93665 10.4255 9.81321 10.5243 9.61563C10.6232 9.41786 10.5737 9.24484 10.4997 9.09665C10.4255 8.94847 9.84977 7.48326 9.58633 6.89749Z" fill="white"/>
</g>
<defs>
<linearGradient id="paint0_linear_424_4" x1="1150.46" y1="2309.67" x2="1150.46" y2="0.414139" gradientUnits="userSpaceOnUse">
<stop stop-color="#1FAF38"/>
<stop offset="1" stop-color="#60D669"/>
</linearGradient>
<linearGradient id="paint1_linear_424_4" x1="1191.29" y1="2392.07" x2="1191.29" y2="0" gradientUnits="userSpaceOnUse">
<stop stop-color="#F9F9F9"/>
<stop offset="1" stop-color="white"/>
</linearGradient>
<clipPath id="clip0_424_4">
<rect width="23.814" height="24" fill="white" transform="translate(0.593025)"/>
</clipPath>
</defs>
</svg>
