<svg width="14" height="14" viewBox="0 0 14 14" fill="none" xmlns="http://www.w3.org/2000/svg">
<g clip-path="url(#clip0_266_19)">
<path d="M9.995 9.995L13 13M0.5 6C0.5 7.45869 1.07946 8.85764 2.11091 9.88909C3.14236 10.9205 4.54131 11.5 6 11.5C7.45869 11.5 8.85764 10.9205 9.88909 9.88909C10.9205 8.85764 11.5 7.45869 11.5 6C11.5 4.54131 10.9205 3.14236 9.88909 2.11091C8.85764 1.07946 7.45869 0.5 6 0.5C4.54131 0.5 3.14236 1.07946 2.11091 2.11091C1.07946 3.14236 0.5 4.54131 0.5 6Z" stroke="white" stroke-linecap="round" stroke-linejoin="round"/>
<path d="M2.51599 6.15599H4.04599L5.07799 4.18799L6.64099 7.81299L7.98399 6.15599H9.48399" stroke="white" stroke-linecap="round" stroke-linejoin="round"/>
</g>
<defs>
<clipPath id="clip0_266_19">
<rect width="14" height="14" fill="white"/>
</clipPath>
</defs>
</svg>
