<svg width="154" height="125" viewBox="0 0 154 125" fill="none" xmlns="http://www.w3.org/2000/svg">
<path d="M48.6645 42.039L65.1544 100.92C65.2212 101.158 65.4876 101.278 65.7102 101.17L120.777 74.3098C121.08 74.1623 121.072 73.7288 120.765 73.5913L49.2085 41.5701C48.9017 41.4328 48.5739 41.7154 48.6645 42.039Z" stroke="white" stroke-width="8.58099"/>
<path d="M78.1301 54.5579L131.027 39.8509C131.328 39.7675 131.602 40.0467 131.514 40.3455L114.113 99.2096C114.064 99.3736 113.916 99.488 113.745 99.4936L64.7783 101.095" stroke="white" stroke-width="8.58099"/>
<path d="M92.2695 55.6076C91.9071 55.4375 91.9527 54.908 92.3389 54.8025L125.125 45.8423C125.45 45.7534 125.747 46.0561 125.651 46.3796L119.339 67.7618C119.264 68.0147 118.981 68.1417 118.743 68.0296L92.2695 55.6076Z" fill="white" stroke="black" stroke-width="5.18151"/>
<path d="M5.48166 62.9594C4.70507 62.816 4.53247 61.7802 5.22059 61.3927L45.4172 38.7578C45.914 38.4781 46.5396 38.7608 46.6579 39.3186L53.2921 70.6008C53.4169 71.1893 52.904 71.7159 52.3124 71.6067L5.48166 62.9594Z" fill="white"/>
<path d="M23.6871 59.2371C23.227 59.136 23.145 58.515 23.5631 58.2979L47.9834 45.6154C48.2852 45.4587 48.6525 45.6399 48.7117 45.9748L52.0353 64.7577C52.0978 65.1111 51.7814 65.4147 51.4309 65.3376L23.6871 59.2371Z" fill="black"/>
</svg>
